<?xml version="1.0" encoding="UTF-8" standalone="no"?>
<svg
   width="226.30327"
   height="27.813089"
   viewBox="0 0 158.5478 19.517958"
   fill-rule="evenodd"
   clip-rule="evenodd"
   stroke-linejoin="round"
   stroke-miterlimit="1.414"
   version="1.1"
   id="svg191"
   sodipodi:docname="logo-pcrsgouvfr.svg"
   inkscape:version="1.2.1 (9c6d41e, 2022-07-14)"
   xmlns:inkscape="http://www.inkscape.org/namespaces/inkscape"
   xmlns:sodipodi="http://sodipodi.sourceforge.net/DTD/sodipodi-0.dtd"
   xmlns="http://www.w3.org/2000/svg"
   xmlns:svg="http://www.w3.org/2000/svg">
  <sodipodi:namedview
     id="namedview193"
     pagecolor="#ffffff"
     bordercolor="#000000"
     borderopacity="0.25"
     inkscape:showpageshadow="2"
     inkscape:pageopacity="0.0"
     inkscape:pagecheckerboard="0"
     inkscape:deskcolor="#d1d1d1"
     showgrid="false"
     inkscape:zoom="4.1403509"
     inkscape:cx="115.44915"
     inkscape:cy="32.364407"
     inkscape:window-width="1278"
     inkscape:window-height="790"
     inkscape:window-x="1836"
     inkscape:window-y="100"
     inkscape:window-maximized="0"
     inkscape:current-layer="g189" />
  <defs
     id="defs195">
    <rect
       x="7.0042372"
       y="20.288136"
       width="58.690678"
       height="15.457627"
       id="rect546" />
    <rect
       x="7.2457628"
       y="27.292374"
       width="64.970337"
       height="13.525424"
       id="rect540" />
  </defs>
  <g
     fill="#373c42"
     fill-rule="nonzero"
     id="g189"
     transform="translate(42.212959,-10.5)">
    <path
       d="M 4.573,25.052 V 12.784 H 6.916 V 16.7 c 0.459,-0.427 0.92,-0.731 1.383,-0.912 0.462,-0.181 1.012,-0.272 1.649,-0.272 0.931,0 1.772,0.211 2.524,0.633 0.738932,0.407766 1.350265,1.012522 1.766,1.747 0.425,0.743 0.638,1.574 0.638,2.493 0,1.249 -0.382,2.338 -1.146,3.268 -0.896,1.076 -2.102,1.614 -3.618,1.614 -0.724,0 -1.344,-0.106 -1.861,-0.316 C 7.734,24.744 7.223,24.384 6.718,23.876 v 1.176 z m 5.005,-7.509 c -0.816,0 -1.486,0.271 -2.012,0.811 -0.525,0.541 -0.788,1.23 -0.788,2.068 0,0.827 0.27,1.504 0.81,2.031 0.54,0.527 1.232,0.791 2.076,0.791 0.838,0 1.522,-0.261 2.05,-0.783 0.529,-0.521 0.793,-1.201 0.793,-2.039 0,-0.849 -0.272,-1.541 -0.814,-2.076 -0.543,-0.535 -1.248,-0.803 -2.115,-0.803 z m 17.266,3.892 h -7.572 c 0.144,0.557 0.457,0.998 0.939,1.322 0.483,0.324 1.071,0.487 1.766,0.487 0.483,0 0.885,-0.069 1.206,-0.207 0.322,-0.138 0.635,-0.374 0.939,-0.71 h 2.559 c -0.138,0.417 -0.396,0.844 -0.776,1.282 -1.01,1.108 -2.302,1.662 -3.876,1.662 -0.711926,0.0038 -1.418545,-0.122618 -2.085,-0.373 -0.619808,-0.227867 -1.191113,-0.570514 -1.684,-1.01 -0.470734,-0.427523 -0.850022,-0.94594 -1.115,-1.524 -0.274958,-0.587403 -0.416347,-1.228433 -0.414,-1.877 0,-0.887 0.228,-1.702 0.685,-2.445 0.455813,-0.742099 1.100882,-1.349548 1.869,-1.76 0.79754,-0.431084 1.691453,-0.652669 2.598,-0.644 0.959,0 1.823,0.212 2.593,0.636 0.754145,0.409972 1.378912,1.022271 1.804,1.768 0.434,0.754 0.651,1.601 0.651,2.542 0,0.303 -0.029,0.587 -0.087,0.851 z m -7.64,-1.946 h 5.418 C 24.473,18.9 24.165,18.449 23.7,18.135 c -0.465,-0.313 -1.059,-0.47 -1.783,-0.47 -0.701,0 -1.282,0.155 -1.744,0.466 -0.463,0.311 -0.786,0.764 -0.969,1.358 z m 10.323,5.563 V 17.86 h -1.146 v -2.011 h 1.146 v -3.065 h 2.343 v 3.065 h 1.413 V 17.86 H 31.87 v 7.192 z m 15.604,-9.203 v 9.203 H 42.986 V 23.86 c -0.471,0.503 -0.958,0.863 -1.46,1.082 -0.503,0.219 -1.098,0.329 -1.788,0.329 -0.941,0 -1.787,-0.204 -2.536,-0.612 -0.734263,-0.393181 -1.34338,-0.984626 -1.758,-1.707 -0.422,-0.73 -0.633,-1.552 -0.633,-2.465 0,-0.925 0.213,-1.756 0.637,-2.494 0.418718,-0.731197 1.033525,-1.330764 1.775,-1.731 0.758,-0.416 1.614,-0.624 2.567,-0.624 0.707,0 1.315,0.115 1.826,0.344 0.512,0.23 0.968,0.596 1.37,1.099 v -1.232 z m -5.134,1.816 c -0.816,0 -1.489,0.27 -2.02,0.811 -0.531,0.54 -0.797,1.227 -0.797,2.059 0,0.806 0.268,1.459 0.805,1.959 0.537,0.5 1.234,0.75 2.089,0.75 0.85,0 1.535,-0.254 2.055,-0.763 0.52,-0.508 0.78,-1.173 0.78,-1.994 0,-0.833 -0.272,-1.511 -0.815,-2.035 -0.542,-0.525 -1.241,-0.787 -2.097,-0.787 z m 9.178,5.726 c -0.530103,-0.0078 -0.965517,0.416869 -0.971,0.947 0,0.481 0.441,0.897 0.953,0.897 0.547,0 1.006,-0.399 1.006,-0.897 0,-0.515 -0.459,-0.947 -0.988,-0.947 z m 11.589,-7.542 h 2.24 v 7.46 c 0,0.913 -0.085,1.671 -0.254,2.274 -0.152328,0.571257 -0.433909,1.099863 -0.823,1.545 -0.93,1.065 -2.259,1.597 -3.988,1.597 -1.195,0 -2.231,-0.257 -3.11,-0.77 -0.857024,-0.489386 -1.528982,-1.247447 -1.912,-2.157 h 2.662 c 0.344,0.357 0.703,0.609 1.076,0.758 0.374,0.149 0.833,0.223 1.379,0.223 0.873,0 1.536,-0.243 1.99,-0.73 0.453,-0.486 0.7,-1.224 0.74,-2.213 -0.459,0.508 -0.937,0.874 -1.434,1.098 -0.497,0.225 -1.09,0.337 -1.779,0.337 -0.919,0 -1.744,-0.208 -2.476,-0.625 -0.723146,-0.40608 -1.316137,-1.009128 -1.71,-1.739 -0.408,-0.743 -0.612,-1.582 -0.612,-2.518 0,-1.362 0.457,-2.494 1.37,-3.397 0.913,-0.903 2.061,-1.354 3.445,-1.354 1.402,0 2.467,0.459 3.196,1.378 z m -2.963,1.816 c -0.804,0 -1.451,0.258 -1.942,0.774 -0.491,0.517 -0.737,1.199 -0.737,2.048 0,0.838 0.248,1.507 0.745,2.007 0.497,0.5 1.165,0.75 2.003,0.75 0.85,0 1.528,-0.253 2.033,-0.759 0.505,-0.505 0.758,-1.182 0.758,-2.031 0,-0.832 -0.263,-1.505 -0.788,-2.019 -0.526,-0.513 -1.216,-0.77 -2.072,-0.77 z m 12.77,-2.027 c 0.93,0 1.792,0.216 2.584,0.649 0.770838,0.411325 1.41885,1.019656 1.878,1.763 0.46,0.743 0.689,1.55 0.689,2.421 0,0.864 -0.231,1.666 -0.693,2.404 -0.464965,0.740151 -1.117339,1.344226 -1.891,1.751 -0.798986,0.43025 -1.693562,0.652089 -2.601,0.645 -0.911937,0.0075 -1.811132,-0.214325 -2.615,-0.645 -0.77596,-0.406525 -1.430986,-1.010501 -1.899,-1.751 -0.45957,-0.717281 -0.701969,-1.552131 -0.698,-2.404 0,-0.66 0.136,-1.288 0.409,-1.886 0.262544,-0.583088 0.640476,-1.106954 1.111,-1.54 0.489896,-0.443391 1.058313,-0.79136 1.676,-1.026 0.653278,-0.25484 1.348782,-0.384102 2.05,-0.381 z m -0.095,2.027 c -0.758,0 -1.411,0.274 -1.959,0.823 -0.549,0.549 -0.823,1.204 -0.823,1.966 0,0.768 0.275,1.425 0.827,1.971 0.522883,0.534449 1.242398,0.830571 1.99,0.819 0.781,0 1.45,-0.272 2.007,-0.815 0.557,-0.544 0.835,-1.196 0.835,-1.958 0,-0.79 -0.278,-1.455 -0.835,-1.995 -0.557,-0.541 -1.238,-0.811 -2.042,-0.811 z m 16.225,-1.816 v 9.203 H 84.53 v -0.884 c -0.448,0.405 -0.88,0.691 -1.297,0.855 -0.416,0.165 -0.917,0.248 -1.503,0.248 -0.66,0 -1.252,-0.126 -1.774,-0.377 C 79.446405,24.653438 79.009346,24.282611 78.689,23.819 78.435955,23.445103 78.254859,23.027294 78.155,22.587 78.052,22.138 78,21.538 78,20.787 v -4.938 h 2.352 v 4.5 c 0,0.638 0.037,1.136 0.112,1.496 0.074,0.359 0.201,0.642 0.379,0.847 0.339,0.368 0.792,0.552 1.361,0.552 0.408,0 0.771,-0.077 1.09,-0.231 0.318,-0.155 0.561,-0.372 0.728,-0.653 0.126,-0.206 0.213,-0.472 0.262,-0.799 0.049,-0.327 0.073,-0.785 0.073,-1.374 v -4.338 z m 5.818,9.203 -3.937,-9.203 h 2.61 l 2.257,6.097 2.223,-6.097 h 2.653 l -3.937,9.203 z m 7.042,-1.66 c -0.498,0 -0.913,0.415 -0.913,0.946 0,0.481 0.415,0.896 0.896,0.896 0.515,0 0.946,-0.398 0.946,-0.896 0,-0.515 -0.431,-0.946 -0.929,-0.946 z"
       id="path185"
       style="display:inline"
       sodipodi:nodetypes="cccccsccscsccccscssscscscccsccccccccccccccsccccsccccccccccccccccccccsccsccsccccscssscscsccsscccsccsccccscccsccsssccscssscscscccsccccccccccscscccscscccccscccsccsccsccssccccccccccsssss" />
    <path
       d="m 102.675,16.537 h 1.928 l -1.949,9.023 c -0.508,2.33 -1.207,3.495 -2.118,3.495 -0.254,0 -0.424,-0.148 -0.424,-0.36 0,-0.063 0.022,-0.106 0.085,-0.212 0.0711,-0.106446 0.10806,-0.232018 0.106,-0.36 -0.003,-0.46307 -0.383994,-0.83436 -0.847,-0.826 -0.445,0 -0.784,0.403 -0.784,0.911 0,0.72 0.741,1.292 1.673,1.292 1.928,0 3.432,-2.118 4.364,-6.079 l 1.588,-6.884 h 2.352 l 0.127,-0.678 h -2.309 c 0.635,-3.389 1.461,-4.893 2.648,-4.893 0.296,0 0.466,0.106 0.466,0.275 0,0.043 -0.022,0.106 -0.085,0.212 -0.0901,0.130317 -0.13479,0.286733 -0.127,0.445 0,0.508 0.318,0.847 0.784,0.847 0.487,0 0.91,-0.402 0.91,-0.868 0,-0.784 -0.783,-1.377 -1.842,-1.377 -1.038,0 -1.886,0.466 -2.669,1.462 -0.636,0.847 -1.081,1.821 -1.737,3.897 h -1.991 z m 7.478,8.515 c 1.165,-3.707 1.525,-4.575 2.499,-6.206 0.741,-1.208 1.334,-1.864 1.694,-1.864 0.149,0 0.255,0.084 0.361,0.296 0.169,0.36 0.338,0.466 0.762,0.466 0.636,0 0.996,-0.381 0.996,-1.059 0,-0.678 -0.403,-1.101 -0.996,-1.101 -0.487,0 -1.08,0.317 -1.631,0.91 -0.89,0.89 -1.779,2.182 -2.118,3.008 l -0.318,0.784 1.186,-4.66 -0.063,-0.042 c -1.546,0.275 -1.779,0.317 -3.326,0.572 v 0.36 c 0.466,-0.085 0.551,-0.106 0.721,-0.106 0.466,0 0.741,0.212 0.741,0.593 0,0.275 -0.17,1.144 -0.339,1.779 l -1.8,6.27 z"
       id="path187"
       style="display:inline"
       sodipodi:nodetypes="cccsscccsscccccssccsssccccccscssscccccccssccc" />
    <text
       xml:space="preserve"
       transform="matrix(0.70175439,0,0,0.70175439,-0.09649123,0)"
       id="text538"
       style="white-space:pre;shape-inside:url(#rect540);fill:#000000" />
    <text
       xml:space="preserve"
       transform="matrix(0.70175439,0,0,0.70175439,-0.09649123,0)"
       id="text544"
       style="white-space:pre;shape-inside:url(#rect546);fill:#000000" />
    <text
       xml:space="preserve"
       style="font-style:normal;font-variant:normal;font-weight:bold;font-stretch:normal;font-size:19.9991px;font-family:Marianne;-inkscape-font-specification:'Marianne, Bold';font-variant-ligatures:normal;font-variant-caps:normal;font-variant-numeric:normal;font-variant-east-asian:normal;display:inline;fill:#373c42;fill-opacity:1;stroke-width:1.66659"
       x="-42.435051"
       y="26.146729"
       id="text552"
       transform="scale(1.0349307,0.96624828)"><tspan
         sodipodi:role="line"
         id="tspan550"
         style="font-style:normal;font-variant:normal;font-weight:bold;font-stretch:normal;font-size:19.9991px;font-family:Marianne;-inkscape-font-specification:'Marianne, Bold';font-variant-ligatures:normal;font-variant-caps:normal;font-variant-numeric:normal;font-variant-east-asian:normal;fill:#373c42;fill-opacity:1;stroke-width:1.66659"
         x="-42.435051"
         y="26.146729">pcrs</tspan></text>
    <path
       d="m 0.96359671,23.306868 c -0.52923005,-0.0078 -0.96392705496,0.416869 -0.96940105,0.947 0,0.481 0.440274,0.897 0.95143105,0.897 0.54609899,0 1.00434299,-0.399 1.00434299,-0.897 0,-0.515 -0.458244,-0.947 -0.98637299,-0.947 z"
       style="display:inline"
       id="path612" />
  </g>
</svg>
