<svg width="80" height="80" viewBox="0 0 80 80" fill="none" xmlns="http://www.w3.org/2000/svg">
<path fill-rule="evenodd" clip-rule="evenodd" d="M76 70C75.4486 70 75 69.5514 75 69C75 68.4486 75.4486 68 76 68C76.5514 68 77 68.4486 77 69C77 69.5514 76.5514 70 76 70Z" fill="#CACAFB"/>
<path fill-rule="evenodd" clip-rule="evenodd" d="M39 4C38.4486 4 38 3.5514 38 3C38 2.44855 38.4486 2 39 2C39.5514 2 40 2.44855 40 3C40 3.5514 39.5514 4 39 4Z" fill="#CACAFB"/>
<path fill-rule="evenodd" clip-rule="evenodd" d="M4 62C3.4486 62 3 61.5514 3 61C3 60.4486 3.4486 60 4 60C4.5514 60 5 60.4486 5 61C5 61.5514 4.5514 62 4 62Z" fill="#CACAFB"/>
<path fill-rule="evenodd" clip-rule="evenodd" d="M54.2514 43.1949L58.1351 33.8336C58.5584 32.8134 59.7286 32.3294 60.7488 32.7527C61.2361 32.9548 61.6238 33.3413 61.8274 33.828L65.7455 43.1909C65.9702 43.7281 65.9498 44.3366 65.6893 44.8574L64.1708 47.8944C64.1212 47.9937 64.0639 48.0877 64 48.1757V51.8377L65.9487 57.6838C65.9835 57.7883 66.0008 57.8977 66 58.0074L65.9931 58.117L64.5791 70.117C64.5244 70.5818 64.1565 70.9409 63.7015 70.9934L63.586 71H56.414C55.946 71 55.5463 70.6767 55.4409 70.2309L55.4209 70.117L54.9569 66.1795C54.8923 65.631 55.2845 65.134 55.833 65.0694C56.3423 65.0094 56.8073 65.3433 56.9228 65.8304L56.9432 65.9455L57.303 69H62.696L63.98 58.103L62.279 53H57.72L55.9487 58.3162C55.7865 58.8028 55.2866 59.0817 54.7965 58.9792L54.6838 58.9487C54.1973 58.7865 53.9184 58.2866 54.0208 57.7965L54.0513 57.6838L56 51.8377V48.1757C55.9361 48.0877 55.8788 47.9937 55.8292 47.8944L54.3098 44.8558C54.0504 44.3368 54.029 43.7308 54.2514 43.1949ZM58 49V51H62V49H58ZM59 36.968L56.0987 43.9613L57.618 47H62.382L63.9005 43.963L61 37.0317V42C61 42.5523 60.5523 43 60 43C59.4872 43 59.0645 42.614 59.0067 42.1166L59 42V36.968Z" fill="#E1000F"/>
<path d="M47 53C48.8856 53 50 54.1144 50 56C50 56.0818 49.99 56.1632 49.9701 56.2425C49.4648 58.2639 47.2178 59.5777 43.2082 60.302L42.5605 60.4115C42.3397 60.4464 42.114 60.4796 41.8835 60.5113L41.1771 60.6015C41.0569 60.6158 40.9355 60.6296 40.8129 60.6431L40.0625 60.7191L39.2827 60.7858L38.4735 60.8432L37.6349 60.8916C37.4926 60.8989 37.3492 60.9058 37.2045 60.9123L36.3218 60.9472L35.4096 60.9732L34.4679 60.9904L33 61C32.4477 61 32 60.5523 32 60C32 59.4477 32.4477 59 33 59L33.95 58.9957C34.1058 58.9942 34.2603 58.9925 34.4135 58.9903L35.3174 58.9732L36.1906 58.9477L37.033 58.9139L37.8447 58.8721L38.6255 58.8222L39.3755 58.7645L40.0946 58.699C40.2119 58.6874 40.3279 58.6755 40.4426 58.6634L41.1154 58.5865C41.4441 58.5462 41.7612 58.5031 42.0667 58.4573L42.6622 58.3621L43.2267 58.2598L43.7603 58.1504C46.1778 57.6242 47.5824 56.8737 47.9638 55.9565L47.997 55.865L47.9903 55.7471C47.944 55.2089 47.7218 55.0245 47.1321 55.0023L47 55C45.9612 55 44.8672 55.547 43.7071 56.7071C43.1045 57.3097 42.0928 56.9277 42.006 56.1136L42 56C42 55.219 41.781 55 41 55C39.9612 55 38.8672 55.547 37.7071 56.7071C37.3166 57.0976 36.6834 57.0976 36.2929 56.7071C35.9024 56.3166 35.9024 55.6834 36.2929 55.2929C37.7994 53.7864 39.3721 53 41 53C42.1448 53 43.0054 53.4108 43.5048 54.1556L43.544 54.219L43.7396 54.0832C44.7168 53.4231 45.719 53.0587 46.7434 53.0065L47 53Z" fill="#E1000F"/>
<path d="M55.9933 11.8834C55.9355 11.386 55.5128 11 55 11H17L16.8834 11.0067C16.386 11.0645 16 11.4872 16 12V66L16.0067 66.1166C16.0645 66.614 16.4872 67 17 67H49L49.1166 66.9933C49.614 66.9355 50 66.5128 50 66L49.9933 65.8834C49.9355 65.386 49.5128 65 49 65H18V13H54V32L54.0067 32.1166C54.0645 32.614 54.4872 33 55 33C55.5523 33 56 32.5523 56 32V12L55.9933 11.8834Z" fill="#000091"/>
<path d="M40 18C40 17.4477 39.5523 17 39 17H23L22.8834 17.0067C22.386 17.0645 22 17.4872 22 18C22 18.5523 22.4477 19 23 19H39L39.1166 18.9933C39.614 18.9355 40 18.5128 40 18Z" fill="#000091"/>
<path d="M49 23C49.5523 23 50 23.4477 50 24C50 24.5128 49.614 24.9355 49.1166 24.9933L49 25H23C22.4477 25 22 24.5523 22 24C22 23.4872 22.386 23.0645 22.8834 23.0067L23 23H49Z" fill="#000091"/>
<path d="M44 30C44 29.4477 43.5523 29 43 29H23L22.8834 29.0067C22.386 29.0645 22 29.4872 22 30C22 30.5523 22.4477 31 23 31H43L43.1166 30.9933C43.614 30.9355 44 30.5128 44 30Z" fill="#000091"/>
<path d="M49 35C49.5523 35 50 35.4477 50 36C50 36.5128 49.614 36.9355 49.1166 36.9933L49 37H23C22.4477 37 22 36.5523 22 36C22 35.4872 22.386 35.0645 22.8834 35.0067L23 35H49Z" fill="#000091"/>
<path d="M59.9933 19.8834C59.9355 19.386 59.5128 19 59 19C58.4477 19 58 19.4477 58 20V28L58.0067 28.1166C58.0645 28.614 58.4872 29 59 29C59.5523 29 60 28.5523 60 28V20L59.9933 19.8834Z" fill="#000091"/>
<path d="M51 69C51.5523 69 52 69.4477 52 70C52 70.5128 51.614 70.9355 51.1166 70.9933L51 71H25C24.4477 71 24 70.5523 24 70C24 69.4872 24.386 69.0645 24.8834 69.0067L25 69H51Z" fill="#000091"/>
<path d="M44 42C44 41.4477 43.5523 41 43 41H23L22.8834 41.0067C22.386 41.0645 22 41.4872 22 42C22 42.5523 22.4477 43 23 43H43L43.1166 42.9933C43.614 42.9355 44 42.5128 44 42Z" fill="#000091"/>
</svg>
