<svg width="86" height="98" viewBox="0 0 86 98" fill="none" xmlns="http://www.w3.org/2000/svg">
<path fill-rule="evenodd" clip-rule="evenodd" d="M84.6673 23.0007C83.9321 23.0007 83.334 22.4025 83.334 21.6673C83.334 20.9321 83.9321 20.334 84.6673 20.334C85.4025 20.334 86.0007 20.9321 86.0007 21.6673C86.0007 22.4025 85.4025 23.0007 84.6673 23.0007Z" fill="#CACAFB"/>
<path fill-rule="evenodd" clip-rule="evenodd" d="M20.6673 97.6667C19.9321 97.6667 19.334 97.0685 19.334 96.3333C19.334 95.5981 19.9321 95 20.6673 95C21.4025 95 22.0007 95.5981 22.0007 96.3333C22.0007 97.0685 21.4025 97.6667 20.6673 97.6667Z" fill="#CACAFB"/>
<path fill-rule="evenodd" clip-rule="evenodd" d="M2.00033 4.33366C1.26513 4.33366 0.666992 3.73553 0.666992 3.00033C0.666992 2.26506 1.26513 1.66699 2.00033 1.66699C2.73553 1.66699 3.33366 2.26506 3.33366 3.00033C3.33366 3.73553 2.73553 4.33366 2.00033 4.33366Z" fill="#CACAFB"/>
<path fill-rule="evenodd" clip-rule="evenodd" d="M48.1357 36.0939C45.3687 31.9181 40.7565 30.9451 37.9894 32.8194L33.2986 35.9967C32.384 36.6162 31.1405 36.377 30.521 35.4625C29.9016 34.548 30.1408 33.3044 31.0553 32.685L35.7461 29.5076C40.9083 26.011 47.8784 28.4639 51.4702 33.8846L60.8752 48.0795C64.4642 53.4961 64.0483 60.9085 58.9078 64.3906L28.819 84.7713C23.6569 88.2678 16.6868 85.815 13.095 80.3942L3.68996 66.1994C0.100962 60.7827 0.516849 53.3703 5.65742 49.8882L6.73659 49.1586C7.65164 48.5399 8.89497 48.7801 9.51364 49.6952C10.1323 50.6102 9.89206 51.8536 8.97701 52.4722L7.90071 53.1999C7.90038 53.2002 7.90006 53.2004 7.89973 53.2006C5.11201 55.0899 4.25509 59.8104 7.02443 63.99L16.4295 78.1849C19.1964 82.3608 23.8087 83.3337 26.5757 81.4595L56.6645 61.0789C59.453 59.19 60.3104 54.4689 57.5408 50.2889L48.1357 36.0939C48.1357 36.0939 48.1357 36.0939 48.1357 36.0939Z" fill="#E1000F"/>
<path fill-rule="evenodd" clip-rule="evenodd" d="M46.4165 2.53677C51.6168 -0.855516 58.6125 1.63015 62.2179 7.03588L71.666 21.202C75.2696 26.6051 74.8391 33.9698 69.6354 37.3818L68.5692 38.1113C67.6576 38.735 66.4129 38.5016 65.7892 37.59C65.1655 36.6784 65.3989 35.4338 66.3105 34.81L67.3938 34.0688C67.406 34.0605 67.4182 34.0524 67.4305 34.0444C70.2297 32.2185 71.1178 27.589 68.3382 23.4215L70.0021 22.3117L68.3382 23.4215L58.8901 9.25534C56.1077 5.08359 51.4227 4.04691 48.6019 5.88698L47.5092 4.21188L48.6019 5.88699L18.1639 25.7422C18.1639 25.7422 18.1639 25.7422 18.1639 25.7422C15.3646 27.5682 14.4765 32.1976 17.2561 36.3651L15.5922 37.4748L17.2561 36.3651L26.7043 50.5314L25.0404 51.6411L26.7043 50.5314C29.4866 54.703 34.1717 55.7397 36.9924 53.8996L36.9925 53.8996L43.619 49.577C44.5442 48.9736 45.7833 49.2343 46.3868 50.1595C46.9903 51.0846 46.7295 52.3238 45.8044 52.9273L39.1779 57.2498C39.1779 57.2498 39.1779 57.2498 39.1779 57.2498C33.9776 60.6422 26.9819 58.1565 23.3765 52.7508L25.0217 51.6536L23.3765 52.7508L13.9284 38.5846C13.9284 38.5846 13.9284 38.5845 13.9284 38.5845C10.3202 33.1747 10.7564 25.7985 15.9785 22.392L15.9785 22.392L46.4165 2.53678C46.4165 2.53677 46.4165 2.53677 46.4165 2.53677Z" fill="#000091"/>
</svg>
