<svg width="200" height="200" viewBox="0 0 200 200" fill="none" xmlns="http://www.w3.org/2000/svg">
<path fill-rule="evenodd" clip-rule="evenodd" d="M30.5551 11.7652C29.0235 11.7652 27.7773 10.4458 27.7773 8.82399C27.7773 7.20208 29.0235 5.88281 30.5551 5.88281C32.0868 5.88281 33.3329 7.20208 33.3329 8.82399C33.3329 10.4458 32.0868 11.7652 30.5551 11.7652Z" fill="#CACAFB"/>
<path fill-rule="evenodd" clip-rule="evenodd" d="M2.77779 176.47C1.24612 176.47 0 175.151 0 173.529C0 171.907 1.24612 170.588 2.77779 170.588C4.30946 170.588 5.55557 171.907 5.55557 173.529C5.55557 175.151 4.30946 176.47 2.77779 176.47Z" fill="#CACAFB"/>
<path fill-rule="evenodd" clip-rule="evenodd" d="M197.222 158.823C195.69 158.823 194.444 157.503 194.444 155.882C194.444 154.26 195.69 152.94 197.222 152.94C198.754 152.94 200 154.26 200 155.882C200 157.503 198.754 158.823 197.222 158.823Z" fill="#CACAFB"/>
<path fill-rule="evenodd" clip-rule="evenodd" d="M152.779 5.88235C151.247 5.88235 150.001 4.56294 150.001 2.94118C150.001 1.31926 151.247 0 152.779 0C154.31 0 155.557 1.31926 155.557 2.94118C155.557 4.56294 154.31 5.88235 152.779 5.88235Z" fill="#CACAFB"/>
<path fill-rule="evenodd" clip-rule="evenodd" d="M91.6667 111.766C82.462 111.766 75 119.667 75 129.413C75 135.944 78.3517 141.648 83.3334 144.699V155.883C83.3334 160.757 87.0642 164.707 91.6667 164.707C96.2692 164.707 100 160.757 100 155.883V144.699C104.982 141.648 108.333 135.944 108.333 129.413C108.333 119.667 100.871 111.766 91.6667 111.766ZM91.6667 141.177C97.8031 141.177 102.778 135.91 102.778 129.413C102.778 122.915 97.8031 117.648 91.6667 117.648C85.5303 117.648 80.5556 122.915 80.5556 129.413C80.5556 135.91 85.5303 141.177 91.6667 141.177ZM88.8889 147.06V155.883C88.8889 157.392 89.9612 158.635 91.3428 158.805L91.6667 158.824C93.2009 158.824 94.4445 157.508 94.4445 155.883V147.06H88.8889Z" fill="#E1000F"/>
<path d="M91.6673 17.6475C64.5248 17.6475 44.445 34.2733 44.445 59.3754V70.5886V70.9563C44.4505 71.0051 44.4375 71.0001 44.445 71.048C41.1886 72.248 38.8894 75.5554 38.8894 79.4122V85.2945C38.8894 86.3257 39.0163 87.3157 39.3233 88.2357H33.2471H32.6394C26.7279 88.5848 22.2227 94.4925 22.2227 101.471V175V175.644C22.5024 182.549 27.2521 188.236 33.2471 188.236H122.223C127.291 195.38 135.358 200 144.445 200C159.787 200 172.223 186.832 172.223 170.589C172.223 154.345 159.787 141.177 144.445 141.177C129.104 141.177 116.667 154.345 116.667 170.589C116.667 174.772 117.525 178.751 119.011 182.353H52.7783V161.765C52.7783 157.066 49.3403 153.21 44.9658 152.942H44.445H27.7782V135.295H47.2227H47.57C48.9516 135.125 50.0005 133.862 50.0005 132.353C50.0005 130.729 48.7569 129.412 47.2227 129.412H27.7782V101.471V100.92C27.986 97.0395 30.4821 94.118 33.2471 94.118H144.532H144.966C147.699 94.3786 150.001 97.5069 150.001 101.471V120.589V120.956C150.161 122.419 151.354 123.53 152.779 123.53C154.313 123.53 155.556 122.213 155.556 120.589V101.471V100.827C155.277 93.9227 150.527 88.2357 144.532 88.2357H144.011C144.318 87.3157 144.445 86.3257 144.445 85.2945V79.4122C144.445 74.5389 140.714 70.5886 136.112 70.5886C136.112 70.5886 132.061 70.5886 130.346 70.5886C128.632 70.5886 129.254 70.5886 129.254 70.5886C128.924 70.7875 127.983 70.9272 126.476 71.1401C126.533 71.1742 126.647 71.161 126.65 71.2322C126.678 71.9054 126.13 71.8875 125.782 72.151C125.626 72.2675 125.627 72.2725 125.522 72.3351C125.482 72.3542 125.476 72.4113 125.435 72.4269C125.243 72.4986 125.307 72.8616 125.087 72.8863C124.763 72.9233 124.392 72.9498 124.046 72.8863C123.942 72.8675 123.879 72.8186 123.786 72.7945C123.758 72.7875 123.725 72.8022 123.699 72.7945C123.54 72.8345 123.405 72.8763 123.265 72.8863C123.09 72.9016 123.164 72.8877 122.744 72.7945C122.049 72.3733 122.038 72.0354 121.962 71.2322C121.784 71.1851 121.646 71.0251 121.442 70.9563C117.268 71.4372 113.89 74.8651 113.89 79.4122V85.2945C113.89 86.3257 114.017 87.3157 114.324 88.2357H69.0112C69.3181 87.3157 69.445 86.3257 69.445 85.2945V79.4122C69.445 74.5389 65.7142 70.5886 61.1117 70.5886H50.0005V59.3754V58.4563C50.4733 37.458 67.6739 23.5298 91.6673 23.5298V17.6475ZM47.2227 76.471H61.1117C62.6459 76.471 63.8895 77.7877 63.8895 79.4122V85.2945C63.8895 86.9189 62.6459 88.2357 61.1117 88.2357H47.2227C45.6886 88.2357 44.445 86.9189 44.445 85.2945V79.4122C44.445 77.7877 45.6886 76.471 47.2227 76.471ZM122.223 76.471H136.112C137.646 76.471 138.89 77.7877 138.89 79.4122V85.2945C138.89 86.9189 137.646 88.2357 136.112 88.2357H122.223C120.689 88.2357 119.445 86.9189 119.445 85.2945V79.4122C119.445 77.7877 120.689 76.471 122.223 76.471ZM144.445 147.059C156.718 147.059 166.668 157.594 166.668 170.589C166.668 183.584 156.718 194.118 144.445 194.118C132.172 194.118 122.223 183.584 122.223 170.589C122.223 163.37 125.29 156.89 130.122 152.574C133.99 149.12 138.989 147.059 144.445 147.059ZM27.7782 158.824H44.445C45.8694 158.824 47.0622 159.935 47.2227 161.397V161.765V182.353H33.2471H32.813C30.0805 182.093 27.7782 178.965 27.7782 175V158.824Z" fill="#000091"/>
<path fill-rule="evenodd" clip-rule="evenodd" d="M131.234 72.811C131.281 74.0765 130.35 75.1423 129.155 75.1917L121.916 75.4908C120.721 75.5402 119.714 74.5544 119.668 73.289C119.621 72.0236 120.552 70.9577 121.747 70.9083L128.986 70.6092C130.181 70.5598 131.188 71.5456 131.234 72.811Z" fill="#000091"/>
<path d="M155.557 132.353C155.557 133.978 154.313 135.294 152.779 135.294C151.245 135.294 150.001 133.978 150.001 132.353C150.001 130.729 151.245 129.412 152.779 129.412C154.313 129.412 155.557 130.729 155.557 132.353Z" fill="#000091"/>
<path d="M55.5566 132.353C55.5566 130.729 56.8003 129.412 58.3344 129.412C59.8686 129.412 61.1122 130.729 61.1122 132.353C61.1122 133.978 59.8686 135.294 58.3344 135.294C56.8003 135.294 55.5566 133.978 55.5566 132.353Z" fill="#000091"/>
<path d="M131.127 169.791L137.598 177.893L154.454 157.004C155.573 155.617 157.526 155.499 158.779 156.75C159.91 157.879 160.081 159.744 159.157 161.151L159.008 161.353L140.762 183.968C139.268 185.821 136.638 186.04 134.888 184.458C134.717 184.303 134.559 184.134 134.413 183.953L126.554 174.116C125.474 172.766 125.582 170.721 126.802 169.515C127.974 168.356 129.766 168.378 130.962 169.603L131.127 169.791Z" fill="#E1000F"/>
<path fill-rule="evenodd" clip-rule="evenodd" d="M97.2401 20.4613C97.2693 22.0853 96.0496 23.427 94.5158 23.458L88.9235 23.5709C87.3897 23.6019 86.1225 22.3105 86.0933 20.6864C86.064 19.0623 87.2837 17.7206 88.8176 17.6897L94.4098 17.5767C95.9437 17.5457 97.2108 18.8372 97.2401 20.4613Z" fill="#000091"/>
<path fill-rule="evenodd" clip-rule="evenodd" d="M87.171 34.0891C82.9851 34.4291 77.7676 35.4289 73.2016 37.9602C71.8425 38.7137 70.1639 38.1579 69.4522 36.7189C68.7406 35.2798 69.2655 33.5024 70.6246 32.749C76.1223 29.7012 82.1764 28.5951 86.7461 28.224C89.0503 28.0368 91.0245 28.033 92.4301 28.0764C93.1339 28.0982 93.6979 28.1319 94.0925 28.1608C94.2899 28.1753 94.4451 28.1887 94.5546 28.1987C94.6093 28.2038 94.6526 28.208 94.684 28.2112L94.7222 28.2151L94.7345 28.2164L94.7389 28.2169C94.7397 28.217 94.7421 28.2173 94.4737 30.9645L94.7422 28.2173C96.2682 28.3845 97.3772 29.8298 97.2193 31.4456C97.0615 33.0603 95.6981 34.2341 94.1733 34.0687L94.1703 34.0684L94.1563 34.067L94.0727 34.0589C93.9944 34.0517 93.8718 34.0411 93.7083 34.0291C93.3811 34.0051 92.8915 33.9755 92.268 33.9563C91.0192 33.9177 89.2446 33.9207 87.171 34.0891Z" fill="#000091"/>
<path fill-rule="evenodd" clip-rule="evenodd" d="M62.708 43.5569C63.9844 44.458 64.3293 46.2841 63.4782 47.6356C59.2609 54.3328 59.367 59.8563 59.4748 65.4678C59.51 67.2971 59.5453 69.1358 59.4311 71.0275C59.3332 72.6486 58.0127 73.8787 56.4817 73.7751C54.9507 73.6714 53.789 72.2733 53.8868 70.6522C53.9606 69.431 53.9275 68.0336 53.891 66.4894C53.7535 60.6715 53.5668 52.7715 58.8559 44.3724C59.7069 43.0209 61.4316 42.6558 62.708 43.5569Z" fill="#000091"/>
</svg>
