<svg width="200" height="200" viewBox="0 0 200 200" fill="none" xmlns="http://www.w3.org/2000/svg">
<path fill-rule="evenodd" clip-rule="evenodd" d="M185.881 14.7056C184.083 14.7056 182.62 13.3862 182.62 11.7644C182.62 10.1425 184.083 8.82324 185.881 8.82324C187.679 8.82324 189.142 10.1425 189.142 11.7644C189.142 13.3862 187.679 14.7056 185.881 14.7056Z" fill="#CACAFB"/>
<path fill-rule="evenodd" clip-rule="evenodd" d="M97.8324 200C96.0342 200 94.5713 198.68 94.5713 197.058C94.5713 195.437 96.0342 194.117 97.8324 194.117C99.6305 194.117 101.093 195.437 101.093 197.058C101.093 198.68 99.6305 200 97.8324 200Z" fill="#CACAFB"/>
<path fill-rule="evenodd" clip-rule="evenodd" d="M13.0443 5.88235C11.2461 5.88235 9.7832 4.56294 9.7832 2.94118C9.7832 1.31926 11.2461 0 13.0443 0C14.8424 0 16.3054 1.31926 16.3054 2.94118C16.3054 4.56294 14.8424 5.88235 13.0443 5.88235Z" fill="#CACAFB"/>
<path d="M100.218 36.1228C109.665 27.1311 125.1 27.2131 134.458 36.139C138.049 39.5634 140.039 44.5478 140.214 50.284C140.263 51.9078 141.763 53.1878 143.563 53.1431C145.364 53.0984 146.783 51.7458 146.733 50.1222C146.517 43.0237 143.974 36.6525 139.197 32.0972C128.025 21.4414 109.961 20.6816 97.832 30.0608C85.7037 20.6816 67.6393 21.4414 56.4669 32.0972C45.0211 43.0134 47.0603 64.3596 59.4664 76.1919C65.1547 81.6172 73.5771 87.409 84.7512 93.6002L87.8668 95.2987C89.4589 96.1528 91.1021 97.0146 92.7966 97.884L96.1842 99.5975C96.2872 99.6517 96.3936 99.7008 96.5021 99.7446C96.9313 99.9178 97.3839 100.001 97.8314 100C98.2791 100.001 98.7321 99.9181 99.1619 99.7446C99.2705 99.7008 99.3765 99.6517 99.4795 99.5975L102.867 97.884C104.562 97.0146 106.205 96.1528 107.797 95.2987L110.913 93.6002C122.087 87.409 130.509 81.6172 136.198 76.1919C137.435 75.0119 137.377 73.1505 136.069 72.0343C134.76 70.9181 132.696 70.9702 131.459 72.1505C126.184 77.1814 118.15 82.6946 107.373 88.6575L104.366 90.2949C102.281 91.4122 100.103 92.5449 97.832 93.6925C95.5607 92.5449 93.3826 91.4122 91.2984 90.2949L88.2911 88.6575C77.5145 82.6946 69.4802 77.1814 64.2054 72.1505C54.0259 62.4417 52.3227 44.6111 61.2055 36.139C70.5642 27.2131 85.9989 27.1311 95.4452 36.1222C95.4717 36.1478 95.4984 36.1731 95.5261 36.1978C95.7942 36.4399 96.0978 36.6311 96.4226 36.7714C97.3089 37.154 98.3502 37.1566 99.2415 36.7714C99.5663 36.6311 99.8699 36.4399 100.138 36.1978C100.165 36.1731 100.192 36.1481 100.218 36.1228Z" fill="#E1000F"/>
<path d="M22.8276 58.8232C24.6286 58.8232 26.0886 60.14 26.0886 61.7644C26.0886 63.2729 24.8299 64.5159 23.2078 64.6859L22.8276 64.7056H3.26108C1.45998 64.7056 0 63.3888 0 61.7644C0 60.2562 1.25878 59.0129 2.88084 58.8432L3.26108 58.8232H22.8276Z" fill="#E1000F"/>
<path d="M35.8714 64.7056C37.6725 64.7056 39.1325 63.3888 39.1325 61.7644C39.1325 60.14 37.6725 58.8232 35.8714 58.8232C34.0703 58.8232 32.6104 60.14 32.6104 61.7644C32.6104 63.3888 34.0703 64.7056 35.8714 64.7056Z" fill="#E1000F"/>
<path d="M166.092 107.909C173.757 103.918 183.339 105.671 187.439 112.076C191.539 118.482 188.432 126.842 180.766 130.834L128.448 161.574L127.665 161.931C121.062 164.806 112.402 165.183 100.232 163.962L99.2587 163.862L97.2695 163.642L95.1798 163.393L92.9388 163.109L86.7293 162.269L79.1949 161.273L74.7299 160.73L72.3812 160.471L70.2615 160.262L68.3538 160.103L66.6424 159.993L65.6028 159.948L64.6381 159.924L63.322 159.929C63.184 159.932 63.0487 159.936 62.916 159.941L62.1486 159.983L61.4377 160.045L60.778 160.13L60.1649 160.236L59.5939 160.363L59.0601 160.511L58.5585 160.681C58.4776 160.711 58.3974 160.742 58.3185 160.774L57.8567 160.976L57.4152 161.198L57.3405 161.24L59.2753 166.035L59.456 166.525C60.9335 170.951 58.4375 175.7 53.6242 177.28L35.8259 183.122L35.4609 183.221C33.8725 183.562 32.2181 182.782 31.6461 181.364C31.0301 179.838 31.9028 178.15 33.5953 177.595L51.3936 171.752L51.7164 171.625C53.0642 171.005 53.7259 169.482 53.1464 168.047L33.0702 118.298L32.9189 117.979C32.1904 116.646 30.5364 116 29.0865 116.476L11.2882 122.319L10.9654 122.445C9.61755 123.066 8.95587 124.588 9.53504 126.024L19.7686 154.138L19.8665 154.47C20.1932 155.913 19.2762 157.379 17.6874 157.849C15.976 158.356 14.1335 157.516 13.5719 155.972L3.19518 127.466C1.74791 123.12 4.24394 118.371 9.05729 116.791L26.8556 110.948L27.3924 110.788C32.2364 109.485 37.4248 111.89 39.1988 116.286L40.0757 118.459C40.2365 118.313 40.4165 118.181 40.6154 118.064C59.6911 106.881 85.6682 108.388 100.193 117.691L100.934 118.178C107.079 122.341 112.54 122.171 122.017 117.495L123.589 116.697L125.237 115.82L126.964 114.864C127.553 114.532 128.156 114.186 128.774 113.828C128.816 113.803 128.86 113.78 128.903 113.757L128.95 113.73L128.981 113.712L135.097 110.316L135.667 110.013C141.611 107.031 149.191 108.75 152.847 114.027C157.289 120.438 157.819 124.521 151.809 127.908L150.392 128.76L141.246 134.233L134.497 138.232L127.071 142.566L123.347 144.692C118.296 147.543 109.908 147.053 97.8532 143.496L95.5499 142.793C94.7679 142.547 93.9712 142.289 93.1602 142.019L90.6837 141.174C89.4236 140.733 88.1306 140.266 86.8047 139.773C85.1396 139.154 84.3465 137.435 85.0332 135.933C85.72 134.431 87.6265 133.716 89.2912 134.335C89.7171 134.494 90.1391 134.649 90.5569 134.801L93.0164 135.678C93.4181 135.819 93.816 135.956 94.2096 136.09L96.524 136.858C97.2792 137.102 98.0182 137.334 98.7409 137.555L100.86 138.179L102.88 138.733C111.419 140.981 117.162 141.243 119.887 139.706L124.401 137.123L129.94 133.89L138.921 128.569L148.707 122.702C149.883 121.916 149.901 121.145 148.479 118.886L147.952 118.076L147.316 117.144C145.451 114.452 141.519 113.633 138.535 115.316L132.4 118.721L132.361 118.74L132.302 118.775L131.333 119.334L129.444 120.395C129.135 120.565 128.829 120.733 128.525 120.897L126.733 121.845C114.406 128.218 106.493 129.014 97.65 123.301L97.0167 122.882C84.7619 114.579 61.1869 113.02 44.17 122.996C43.5302 123.371 42.7987 123.518 42.0936 123.459L55.0763 155.63L55.2596 155.54L55.887 155.262L56.5259 155.012L57.1817 154.789L57.8603 154.592L58.5676 154.423L59.3092 154.279C59.5629 154.236 59.8231 154.197 60.0909 154.163L60.9182 154.072L61.7971 154.008L62.733 153.97C62.8941 153.965 63.0578 153.962 63.2245 153.96L64.2569 153.961L65.3611 153.987L66.5426 154.039L67.8069 154.116L69.1599 154.218L71.3687 154.419L73.8089 154.677L77.4568 155.106L82.7143 155.781L91.4546 156.966L94.9681 157.428L98.0782 157.806L100.011 158.018L102.308 158.246C113.012 159.228 120.401 158.765 125.147 156.508L177.356 125.822L177.881 125.532C182.323 122.941 183.912 118.332 181.791 115.018C179.587 111.576 174.043 110.561 169.353 113.004C167.793 113.816 165.798 113.334 164.898 111.927C163.997 110.521 164.532 108.722 166.092 107.909Z" fill="#000091"/>
<path d="M22.8265 129.412C24.6276 129.412 26.0876 128.095 26.0876 126.47C26.0876 124.846 24.6276 123.529 22.8265 123.529C21.0254 123.529 19.5654 124.846 19.5654 126.47C19.5654 128.095 21.0254 129.412 22.8265 129.412Z" fill="#000091"/>
<path d="M143.062 64.7056C141.261 64.7056 139.801 63.3888 139.801 61.7644C139.801 60.14 141.261 58.8232 143.062 58.8232C144.863 58.8232 146.323 60.14 146.323 61.7644C146.323 63.3888 144.863 64.7056 143.062 64.7056Z" fill="#000091"/>
<path fill-rule="evenodd" clip-rule="evenodd" d="M152.593 61.7644C152.593 60.1401 154.053 58.8232 155.854 58.8232H196.739C198.54 58.8232 200 60.1401 200 61.7644C200 63.3888 198.54 64.7056 196.739 64.7056H155.854C154.053 64.7056 152.593 63.3888 152.593 61.7644Z" fill="#000091"/>
</svg>
