<svg width="200" height="200" viewBox="0 0 200 200" fill="none" xmlns="http://www.w3.org/2000/svg">
<path fill-rule="evenodd" clip-rule="evenodd" d="M169.667 199.939C168.013 199.939 166.667 198.594 166.667 196.939C166.667 195.285 168.013 193.939 169.667 193.939C171.321 193.939 172.667 195.285 172.667 196.939C172.667 198.594 171.321 199.939 169.667 199.939Z" fill="#CACAFB"/>
<path fill-rule="evenodd" clip-rule="evenodd" d="M196.333 6C194.679 6 193.333 4.6542 193.333 3C193.333 1.34566 194.679 0 196.333 0C197.987 0 199.333 1.34566 199.333 3C199.333 4.6542 197.987 6 196.333 6Z" fill="#CACAFB"/>
<path fill-rule="evenodd" clip-rule="evenodd" d="M3 18.1201C1.3458 18.1201 0 16.7743 0 15.1201C0 13.4658 1.3458 12.1201 3 12.1201C4.6542 12.1201 6 13.4658 6 15.1201C6 16.7743 4.6542 18.1201 3 18.1201Z" fill="#CACAFB"/>
<path fill-rule="evenodd" clip-rule="evenodd" d="M152.117 65.7334H120.512C118.767 65.7334 117.352 66.9975 117.352 68.5569V91.143C117.352 92.7022 118.767 93.9663 120.512 93.9663H152.117C153.863 93.9663 155.277 92.7022 155.277 91.143V68.5569C155.277 66.9975 153.863 65.7334 152.117 65.7334ZM148.956 71.3802V88.3198H123.673V71.3802H148.956Z" fill="#E1000F"/>
<path fill-rule="evenodd" clip-rule="evenodd" d="M89.1197 61.0469H57.5149C55.7695 61.0469 54.3545 62.311 54.3545 63.8701V86.4565C54.3545 88.0157 55.7695 89.2798 57.5149 89.2798H89.1197C90.8653 89.2798 92.2803 88.0157 92.2803 86.4565V63.8701C92.2803 62.311 90.8653 61.0469 89.1197 61.0469ZM85.9593 66.6934V83.633H60.6755V66.6934H85.9593Z" fill="#E1000F"/>
<path fill-rule="evenodd" clip-rule="evenodd" d="M174.24 108.083C174.24 106.524 172.825 105.26 171.08 105.26H139.475C137.729 105.26 136.314 106.524 136.314 108.083V130.669C136.314 132.229 137.729 133.493 139.475 133.493H171.08C172.825 133.493 174.24 132.229 174.24 130.669V108.083ZM167.919 110.906V127.846H142.635V110.906H167.919Z" fill="#E1000F"/>
<path d="M171.079 65.7334C172.825 65.7334 174.24 66.9975 174.24 68.5569C174.24 70.0047 173.02 71.198 171.448 71.3612L171.079 71.3802H164.758C163.013 71.3802 161.598 70.1161 161.598 68.5569C161.598 67.1091 162.818 65.9155 164.39 65.7524L164.758 65.7334H171.079Z" fill="#E1000F"/>
<path d="M174.24 79.8506C174.24 78.2912 172.825 77.0273 171.079 77.0273H164.758L164.39 77.0461C162.818 77.2093 161.598 78.4028 161.598 79.8506C161.598 81.4098 163.013 82.6739 164.758 82.6739H171.079L171.448 82.6549C173.02 82.4917 174.24 81.2984 174.24 79.8506Z" fill="#E1000F"/>
<path d="M171.079 88.3203C172.825 88.3203 174.24 89.5842 174.24 91.1436C174.24 92.5914 173.02 93.7847 171.448 93.9478L171.079 93.9669H164.758C163.013 93.9669 161.598 92.7027 161.598 91.1436C161.598 89.6958 162.818 88.5025 164.39 88.3391L164.758 88.3203H171.079Z" fill="#E1000F"/>
<path d="M129.994 108.083C129.994 106.524 128.579 105.26 126.833 105.26H120.512L120.144 105.279C118.572 105.442 117.352 106.635 117.352 108.083C117.352 109.642 118.767 110.906 120.512 110.906H126.833L127.202 110.888C128.774 110.724 129.994 109.531 129.994 108.083Z" fill="#E1000F"/>
<path d="M126.833 116.553C128.579 116.553 129.994 117.817 129.994 119.376C129.994 120.824 128.774 122.017 127.202 122.18L126.833 122.199H120.512C118.767 122.199 117.352 120.935 117.352 119.376C117.352 117.928 118.572 116.735 120.144 116.572L120.512 116.553H126.833Z" fill="#E1000F"/>
<path d="M129.994 130.669C129.994 129.11 128.579 127.846 126.833 127.846H120.512L120.144 127.865C118.572 128.028 117.352 129.221 117.352 130.669C117.352 132.228 118.767 133.492 120.512 133.492H126.833L127.202 133.473C128.774 133.31 129.994 132.117 129.994 130.669Z" fill="#E1000F"/>
<path d="M129.994 108.083C129.994 106.524 128.579 105.26 126.833 105.26H120.512L120.144 105.279C118.572 105.442 117.352 106.635 117.352 108.083C117.352 109.642 118.767 110.906 120.512 110.906H126.833L127.202 110.888C128.774 110.724 129.994 109.531 129.994 108.083Z" fill="#E1000F"/>
<path d="M126.833 116.553C128.579 116.553 129.994 117.817 129.994 119.376C129.994 120.824 128.774 122.017 127.202 122.18L126.833 122.199H120.512C118.767 122.199 117.352 120.935 117.352 119.376C117.352 117.928 118.572 116.735 120.144 116.572L120.512 116.553H126.833Z" fill="#E1000F"/>
<path d="M129.994 130.669C129.994 129.11 128.579 127.846 126.833 127.846H120.512L120.144 127.865C118.572 128.028 117.352 129.221 117.352 130.669C117.352 132.228 118.767 133.492 120.512 133.492H126.833L127.202 133.473C128.774 133.31 129.994 132.117 129.994 130.669Z" fill="#E1000F"/>
<path d="M28.8574 40.3242C28.8574 41.881 30.2752 43.1475 32.0179 43.1475C33.7607 43.1475 35.1783 41.881 35.1783 40.3242C35.1783 38.7675 33.7607 37.501 32.0179 37.501C30.2752 37.501 28.8574 38.7675 28.8574 40.3242Z" fill="#000091"/>
<path d="M44.6606 43.1475C42.9179 43.1475 41.5 41.881 41.5 40.3242C41.5 38.7675 42.9179 37.501 44.6606 37.501C46.4033 37.501 47.821 38.7675 47.821 40.3242C47.821 41.881 46.4033 43.1475 44.6606 43.1475Z" fill="#000091"/>
<path d="M54.1416 40.3242C54.1416 41.881 55.5595 43.1475 57.3022 43.1475C59.0449 43.1475 60.4626 41.881 60.4626 40.3242C60.4626 38.7675 59.0449 37.501 57.3022 37.501C55.5595 37.501 54.1416 38.7675 54.1416 40.3242Z" fill="#000091"/>
<path d="M28.8574 71.3802V60.0869H35.1783V71.3802H28.8574Z" fill="#000091"/>
<path d="M28.8574 82.6739V77.0273H35.1783V82.6739H28.8574Z" fill="#000091"/>
<path d="M35.1783 99.6134V88.3203H28.8574V99.6134H35.1783Z" fill="#000091"/>
<path d="M28.8574 116.553V105.26H35.1783V116.553H28.8574Z" fill="#000091"/>
<path d="M35.1783 127.846V122.199H28.8574V127.846H35.1783Z" fill="#000091"/>
<path fill-rule="evenodd" clip-rule="evenodd" d="M190.042 26.208H19.3763C17.6308 26.208 16.2158 27.472 16.2158 29.0313V158.902C16.2158 160.462 17.6308 161.725 19.3763 161.725H190.042C191.788 161.725 193.203 160.462 193.203 158.902V29.0313C193.203 27.472 191.788 26.208 190.042 26.208ZM171.08 144.786H186.882V54.4407H158.438C156.692 54.4407 155.277 53.1768 155.277 51.6175C155.277 50.1697 156.497 48.9763 158.069 48.8132L158.438 48.7942H186.882V31.8546H22.5368V48.7942H139.475C141.22 48.7942 142.635 50.0583 142.635 51.6175C142.635 53.0652 141.415 54.2588 139.843 54.4219L139.475 54.4407H104.709V87.3797V144.786H152.117C153.862 144.786 155.277 146.05 155.277 147.609C155.277 149.057 154.057 150.25 152.485 150.413L152.117 150.432H22.5368V156.079H186.882V150.432H171.08C169.334 150.432 167.919 149.168 167.919 147.609C167.919 146.161 169.139 144.968 170.711 144.805L171.08 144.786ZM47.8206 144.786H98.3883V54.4407H47.8206V144.786ZM22.5368 54.4407H41.4997V144.786H22.5368V54.4407Z" fill="#000091"/>
<path d="M57.3018 99.5527L89.2845 99.613" stroke="#E0000F" stroke-width="3.82964" stroke-miterlimit="10" stroke-linecap="round" stroke-linejoin="round"/>
<path d="M57.3018 110.906L89.2845 110.967" stroke="#E0000F" stroke-width="3.82964" stroke-miterlimit="10" stroke-linecap="round" stroke-linejoin="round"/>
<path d="M57.3262 122.079L89.3089 122.139" stroke="#E0000F" stroke-width="3.82964" stroke-miterlimit="10" stroke-linecap="round" stroke-linejoin="round"/>
<path d="M57.3262 133.433L89.3089 133.493" stroke="#E0000F" stroke-width="3.82964" stroke-miterlimit="10" stroke-linecap="round" stroke-linejoin="round"/>
</svg>
