<?xml version="1.0" encoding="UTF-8" standalone="no"?>
<!DOCTYPE svg PUBLIC "-//W3C//DTD SVG 1.1//EN" "http://www.w3.org/Graphics/SVG/1.1/DTD/svg11.dtd">
<!-- Created with Vectornator (http://vectornator.io/) -->
<svg stroke-miterlimit="10" style="fill-rule:nonzero;clip-rule:evenodd;stroke-linecap:round;stroke-linejoin:round;" version="1.1" viewBox="0 0 1640 826.539" xml:space="preserve" xmlns="http://www.w3.org/2000/svg" xmlns:vectornator="http://vectornator.io" xmlns:xlink="http://www.w3.org/1999/xlink">
<defs/>
<clipPath id="ArtboardFrame">
<rect height="826.539" width="1640" x="0" y="0"/>
</clipPath>
<g clip-path="url(#ArtboardFrame)" id="Calque-1" vectornator:layerName="Calque 1">
<path d="M0.0128252-1.43361L1640.75-1.43361L1640.75 826.286L0.0128252 826.286L0.0128252-1.43361Z" fill="#273961" fill-rule="nonzero" opacity="1" stroke="none"/>
<path d="M233.752 170.92L233.752 630.264C233.752 646.432 246.858 659.538 263.026 659.538L539.224 659.538C555.391 659.538 568.498 646.432 568.498 630.264L568.498 201.459C568.498 184.593 556.008 170.92 540.602 170.92C540.602 170.92 233.752 170.92 233.752 170.92ZM185.595 129.751L524.981 129.751C565.147 129.751 597.707 167.074 597.707 213.114L597.707 657.715C597.707 673.061 586.854 685.502 573.465 685.502L234.079 685.502C220.69 685.502 209.837 673.061 209.837 657.715L209.837 463.202L112.869 463.202L112.869 213.114C112.869 167.074 145.43 129.751 185.595 129.751ZM194.127 424.077L194.127 218.049C194.127 201.794 182.155 188.616 167.386 188.616C152.617 188.616 140.645 201.794 140.645 218.049L140.645 424.077L194.127 424.077ZM515.016 600.673L354.571 600.673L354.571 424.077L515.016 424.077L515.016 600.673ZM381.849 447.641L381.849 571.506L489.923 571.506L489.923 447.641L381.849 447.641M301.09 377.029L301.09 361.041L515.016 361.041L515.016 394.645L301.09 394.645L301.09 377.029M301.09 289.797L301.09 275.208L515.016 275.208L515.016 306.347L301.09 306.347L301.09 289.797" fill="#ff0000" fill-rule="nonzero" opacity="1" stroke="none"/>
<path d="M640.402 408.469L680.402 408.469" fill="none" opacity="1" stroke="#ffffff" stroke-linecap="round" stroke-linejoin="round" stroke-width="28.601"/>
<path d="M740.402 408.469L780.402 408.469" fill="none" opacity="1" stroke="#ffffff" stroke-linecap="round" stroke-linejoin="round" stroke-width="28.601"/>
<path d="M853.025 407.627L893.025 407.627" fill="none" opacity="1" stroke="#ffffff" stroke-linecap="round" stroke-linejoin="round" stroke-width="28.601"/>
<path d="M953.025 407.627L993.025 407.627" fill="none" opacity="1" stroke="#ffffff" stroke-linecap="round" stroke-linejoin="round" stroke-width="28.601"/>
<path d="M1053.02 407.627L1093.02 407.627" fill="none" opacity="1" stroke="#ffffff" stroke-linecap="round" stroke-linejoin="round" stroke-width="28.601"/>
<path d="M1153.02 407.627L1193.02 407.627" fill="none" opacity="1" stroke="#ffffff" stroke-linecap="round" stroke-linejoin="round" stroke-width="28.601"/>
<path d="M1253.02 407.627L1293.02 407.627" fill="none" opacity="1" stroke="#ffffff" stroke-linecap="round" stroke-linejoin="round" stroke-width="28.601"/>
<path d="M1353.02 407.627L1393.02 407.627" fill="none" opacity="1" stroke="#ffffff" stroke-linecap="round" stroke-linejoin="round" stroke-width="28.601"/>
<path d="M1453.02 407.627L1493.02 407.627" fill="none" opacity="1" stroke="#ffffff" stroke-linecap="round" stroke-linejoin="round" stroke-width="28.601"/>
<path d="M1553.02 407.627L1593.02 407.627" fill="none" opacity="1" stroke="#ffffff" stroke-linecap="round" stroke-linejoin="round" stroke-width="28.601"/>
<path d="M1124.88 698.128L1125.58 658.134" fill="none" opacity="1" stroke="#ffffff" stroke-linecap="round" stroke-linejoin="round" stroke-width="28.601"/>
<path d="M1126.63 598.144L1127.33 558.15" fill="none" opacity="1" stroke="#ffffff" stroke-linecap="round" stroke-linejoin="round" stroke-width="28.601"/>
<path d="M1128.37 498.159L1129.07 458.165" fill="none" opacity="1" stroke="#ffffff" stroke-linecap="round" stroke-linejoin="round" stroke-width="28.601"/>
<path d="M817.798 693.729L818.496 653.735" fill="none" opacity="1" stroke="#ffffff" stroke-linecap="round" stroke-linejoin="round" stroke-width="28.601"/>
<path d="M820.667 593.912L821.365 553.918" fill="none" opacity="1" stroke="#ffffff" stroke-linecap="round" stroke-linejoin="round" stroke-width="28.601"/>
<path d="M822.412 493.927L823.11 453.933" fill="none" opacity="1" stroke="#ffffff" stroke-linecap="round" stroke-linejoin="round" stroke-width="28.601"/>
<path d="M1126.28 800.301L1126.98 760.307" fill="none" opacity="1" stroke="#ffffff" stroke-linecap="round" stroke-linejoin="round" stroke-width="28.601"/>
<path d="M1169.83 728.146L1209.83 728.146" fill="none" opacity="1" stroke="#ffffff" stroke-linecap="round" stroke-linejoin="round" stroke-width="28.601"/>
<path d="M1269.83 728.146L1309.83 728.146" fill="none" opacity="1" stroke="#ffffff" stroke-linecap="round" stroke-linejoin="round" stroke-width="28.601"/>
<path d="M1369.83 728.146L1409.83 728.146" fill="none" opacity="1" stroke="#ffffff" stroke-linecap="round" stroke-linejoin="round" stroke-width="28.601"/>
<path d="M1469.83 728.146L1509.83 728.146" fill="none" opacity="1" stroke="#ffffff" stroke-linecap="round" stroke-linejoin="round" stroke-width="28.601"/>
<path d="M1544.86 696.119L1566.28 662.338" fill="none" opacity="1" stroke="#ffffff" stroke-linecap="round" stroke-linejoin="round" stroke-width="28.601"/>
<path d="M389.17 78.3178L389.868 38.3239" fill="none" opacity="1" stroke="#ffffff" stroke-linecap="round" stroke-linejoin="round" stroke-width="28.601"/>
<path d="M389.868 775.403L390.566 735.409" fill="none" opacity="1" stroke="#ffffff" stroke-linecap="round" stroke-linejoin="round" stroke-width="28.601"/>
<path d="M1387.85 214.575L1357.98 187.967" fill="none" opacity="1" stroke="#ffffff" stroke-linecap="round" stroke-linejoin="round" stroke-width="28.601"/>
<path d="M1313.18 148.054L1283.32 121.446" fill="none" opacity="1" stroke="#ffffff" stroke-linecap="round" stroke-linejoin="round" stroke-width="28.601"/>
<path d="M1540.89 346.662L1511.02 320.054" fill="none" opacity="1" stroke="#ffffff" stroke-linecap="round" stroke-linejoin="round" stroke-width="28.601"/>
<path d="M1466.22 280.141L1436.36 253.533" fill="none" opacity="1" stroke="#ffffff" stroke-linecap="round" stroke-linejoin="round" stroke-width="28.601"/>
<path d="M885.13 96.5651L925.13 96.5651" fill="none" opacity="1" stroke="#ffffff" stroke-linecap="round" stroke-linejoin="round" stroke-width="28.601"/>
<path d="M985.13 96.5651L1025.13 96.5651" fill="none" opacity="1" stroke="#ffffff" stroke-linecap="round" stroke-linejoin="round" stroke-width="28.601"/>
<path d="M1085.13 96.5651L1125.13 96.5651" fill="none" opacity="1" stroke="#ffffff" stroke-linecap="round" stroke-linejoin="round" stroke-width="28.601"/>
<path d="M1185.13 96.5651L1225.13 96.5651" fill="none" opacity="1" stroke="#ffffff" stroke-linecap="round" stroke-linejoin="round" stroke-width="28.601"/>
<path d="M40 407.627L80 407.627" fill="none" opacity="1" stroke="#ffffff" stroke-linecap="round" stroke-linejoin="round" stroke-width="28.601"/>
<path d="M822.469 262.798L823.167 222.804" fill="none" opacity="1" stroke="#ffffff" stroke-linecap="round" stroke-linejoin="round" stroke-width="28.601"/>
<path d="M824.214 162.813L824.913 122.819" fill="none" opacity="1" stroke="#ffffff" stroke-linecap="round" stroke-linejoin="round" stroke-width="28.601"/>
<path d="M825.96 62.8285L826.658 22.8346" fill="none" opacity="1" stroke="#ffffff" stroke-linecap="round" stroke-linejoin="round" stroke-width="28.601"/>
<path d="M823.865 364.971L824.564 324.977" fill="none" opacity="1" stroke="#ffffff" stroke-linecap="round" stroke-linejoin="round" stroke-width="28.601"/>
<path d="M1592.95 624.356L1614.37 590.575" fill="none" opacity="1" stroke="#ffffff" stroke-linecap="round" stroke-linejoin="round" stroke-width="28.601"/>
<path d="M817.317 790.161L818.015 750.167" fill="none" opacity="1" stroke="#ffffff" stroke-linecap="round" stroke-linejoin="round" stroke-width="28.601"/>
<path d="M599.994 801.242L628.762 773.449" fill="none" opacity="1" stroke="#ffffff" stroke-linecap="round" stroke-linejoin="round" stroke-width="28.601"/>
<path d="M672.589 732.673L701.357 704.881" fill="none" opacity="1" stroke="#ffffff" stroke-linecap="round" stroke-linejoin="round" stroke-width="28.601"/>
<path d="M744.508 663.192L773.276 635.399" fill="none" opacity="1" stroke="#ffffff" stroke-linecap="round" stroke-linejoin="round" stroke-width="28.601"/>
</g>
</svg>
