<svg width="200" height="200" viewBox="0 0 200 200" fill="none" xmlns="http://www.w3.org/2000/svg">
<path fill-rule="evenodd" clip-rule="evenodd" d="M192.5 60C191.121 60 190 58.8785 190 57.5C190 56.1214 191.121 55 192.5 55C193.879 55 195 56.1214 195 57.5C195 58.8785 193.879 60 192.5 60Z" fill="#CACAFB"/>
<path fill-rule="evenodd" clip-rule="evenodd" d="M72.5 200C71.1215 200 70 198.879 70 197.5C70 196.121 71.1215 195 72.5 195C73.8785 195 75 196.121 75 197.5C75 198.879 73.8785 200 72.5 200Z" fill="#CACAFB"/>
<path fill-rule="evenodd" clip-rule="evenodd" d="M37.5 25C36.1215 25 35 23.8785 35 22.5C35 21.1214 36.1215 20 37.5 20C38.8785 20 40 21.1214 40 22.5C40 23.8785 38.8785 25 37.5 25Z" fill="#CACAFB"/>
<path d="M173.88 173.314C161.003 183.741 142.113 181.756 131.686 168.88C121.259 156.003 123.244 137.113 136.12 126.686C148.997 116.259 167.887 118.244 178.314 131.12C179.183 132.193 179.018 133.768 177.945 134.637C176.872 135.505 175.298 135.34 174.429 134.267C165.74 123.537 149.997 121.882 139.267 130.571C128.537 139.26 126.882 155.003 135.571 165.733C144.26 176.463 160.003 178.118 170.733 169.429C177.552 163.907 180.893 155.342 179.798 146.796C179.622 145.427 180.59 144.174 181.96 143.999C183.329 143.823 184.582 144.791 184.757 146.161C186.07 156.408 182.06 166.69 173.88 173.314Z" fill="#E1000F"/>
<path d="M145.103 149.641L150.928 156.528L166.097 138.772C167.105 137.592 168.862 137.492 169.99 138.556C171.008 139.516 171.162 141.101 170.33 142.296L170.196 142.468L153.775 161.691C152.43 163.266 150.063 163.452 148.488 162.107C148.335 161.976 148.192 161.832 148.061 161.678L140.987 153.317C140.016 152.169 140.113 150.431 141.211 149.406C142.266 148.421 143.878 148.439 144.955 149.481L145.103 149.641Z" fill="#E1000F"/>
<path d="M57.5 25C58.7821 25 59.8388 25.9651 59.9832 27.2084L60 27.5V35H140V27.5C140 26.1193 141.119 25 142.5 25C143.782 25 144.839 25.9651 144.983 27.2084L145 27.5V35H162.5C169.222 35 174.705 40.3058 174.988 46.9578L175 47.5V112.5C175 113.881 173.881 115 172.5 115C171.218 115 170.161 114.035 170.017 112.792L170 112.5V70H157.5C156.119 70 155 68.8807 155 67.5C155 66.2179 155.965 65.1612 157.208 65.0168L157.5 65H170V47.5C170 43.5058 166.878 40.2408 162.941 40.0127L162.5 40H145V47.5C145 48.8807 143.881 50 142.5 50C141.218 50 140.161 49.0349 140.017 47.7916L140 47.5V40H60V47.5C60 48.8807 58.8807 50 57.5 50C56.2179 50 55.1612 49.0349 55.0168 47.7916L55 47.5V40H37.5C33.5058 40 30.2408 43.1223 30.0127 47.0593L30 47.5V65H55V62.5C55 61.1193 56.1193 60 57.5 60C58.7821 60 59.8388 60.9651 59.9832 62.2084L60 62.5V65H142.5C143.881 65 145 66.1193 145 67.5C145 68.7821 144.035 69.8388 142.792 69.9832L142.5 70H60V72.5C60 73.8807 58.8807 75 57.5 75C56.2179 75 55.1612 74.0349 55.0168 72.7916L55 72.5V70H30V152.5C30 156.494 33.1223 159.759 37.0593 159.987L37.5 160H107.5C108.881 160 110 161.119 110 162.5C110 163.782 109.035 164.839 107.792 164.983L107.5 165H37.5C30.7781 165 25.2955 159.694 25.0115 153.042L25 152.5V47.5C25 40.7781 30.3058 35.2955 36.9578 35.0115L37.5 35H55V27.5C55 26.1193 56.1193 25 57.5 25Z" fill="#000091"/>
<path d="M117.5 160C116.119 160 115 161.119 115 162.5C115 163.881 116.119 165 117.5 165C118.881 165 120 163.881 120 162.5C120 161.119 118.881 160 117.5 160Z" fill="#000091"/>
<path fill-rule="evenodd" clip-rule="evenodd" d="M75 92.5C75 88.3579 71.6421 85 67.5 85H52.5C48.3579 85 45 88.3579 45 92.5V102.5C45 106.642 48.3579 110 52.5 110H67.5C71.6421 110 75 106.642 75 102.5V92.5ZM50 92.5C50 91.1193 51.1193 90 52.5 90H67.5C68.8807 90 70 91.1193 70 92.5V102.5C70 103.881 68.8807 105 67.5 105H52.5C51.1193 105 50 103.881 50 102.5V92.5Z" fill="#000091"/>
<path fill-rule="evenodd" clip-rule="evenodd" d="M147.5 85C151.642 85 155 88.3579 155 92.5V102.5C155 106.642 151.642 110 147.5 110H132.5C128.358 110 125 106.642 125 102.5V92.5C125 88.3579 128.358 85 132.5 85H147.5ZM132.5 90C131.119 90 130 91.1193 130 92.5V102.5C130 103.881 131.119 105 132.5 105H147.5C148.881 105 150 103.881 150 102.5V92.5C150 91.1193 148.881 90 147.5 90H132.5Z" fill="#000091"/>
<path fill-rule="evenodd" clip-rule="evenodd" d="M107.5 85H92.5C88.3579 85 85 88.3579 85 92.5V102.5C85 106.642 88.3579 110 92.5 110H107.5C111.642 110 115 106.642 115 102.5V92.5C115 88.3579 111.642 85 107.5 85ZM92.5 90H107.5C108.881 90 110 91.1193 110 92.5V102.5C110 103.881 108.881 105 107.5 105H92.5C91.1193 105 90 103.881 90 102.5V92.5C90 91.1193 91.1193 90 92.5 90Z" fill="#000091"/>
<path fill-rule="evenodd" clip-rule="evenodd" d="M67.5 120C71.6421 120 75 123.358 75 127.5V137.5C75 141.642 71.6421 145 67.5 145H52.5C48.3579 145 45 141.642 45 137.5V127.5C45 123.358 48.3579 120 52.5 120H67.5ZM52.5 125C51.1193 125 50 126.119 50 127.5V137.5C50 138.881 51.1193 140 52.5 140H67.5C68.8807 140 70 138.881 70 137.5V127.5C70 126.119 68.8807 125 67.5 125H52.5Z" fill="#000091"/>
<path fill-rule="evenodd" clip-rule="evenodd" d="M107.5 120H92.5C88.3579 120 85 123.358 85 127.5V137.5C85 141.642 88.3579 145 92.5 145H107.5C111.642 145 115 141.642 115 137.5V127.5C115 123.358 111.642 120 107.5 120ZM92.5 125H107.5C108.881 125 110 126.119 110 127.5V137.5C110 138.881 108.881 140 107.5 140H92.5C91.1193 140 90 138.881 90 137.5V127.5C90 126.119 91.1193 125 92.5 125Z" fill="#000091"/>
</svg>
