<svg width="250" height="250" viewBox="0 0 250 250" fill="none" xmlns="http://www.w3.org/2000/svg">
<path fill-rule="evenodd" clip-rule="evenodd" d="M213.897 250C211.685 250 209.886 248.3 209.886 246.212C209.886 244.123 211.685 242.424 213.897 242.424C216.109 242.424 217.909 244.123 217.909 246.212C217.909 248.3 216.109 250 213.897 250Z" fill="#CACAFB"/>
<path fill-rule="evenodd" clip-rule="evenodd" d="M245.987 7.57579C243.775 7.57579 241.976 5.87654 241.976 3.78789C241.976 1.69925 243.775 0 245.987 0C248.199 0 249.999 1.69925 249.999 3.78789C249.999 5.87654 248.199 7.57579 245.987 7.57579Z" fill="#CACAFB"/>
<path fill-rule="evenodd" clip-rule="evenodd" d="M13.322 22.7262C11.1101 22.7262 9.31055 21.0269 9.31055 18.9383C9.31055 16.8496 11.1101 15.1504 13.322 15.1504C15.534 15.1504 17.3335 16.8496 17.3335 18.9383C17.3335 21.0269 15.534 22.7262 13.322 22.7262Z" fill="#CACAFB"/>
<path d="M104.298 53.0379C104.298 50.9458 102.502 49.25 100.287 49.25H52.1492L51.6814 49.2754C49.6861 49.4943 48.1377 51.0955 48.1377 53.0379C48.1377 55.1299 49.9336 56.8258 52.1492 56.8258H100.287L100.755 56.8004C102.75 56.5815 104.298 54.9803 104.298 53.0379Z" fill="#E1000F"/>
<path fill-rule="evenodd" clip-rule="evenodd" d="M153.512 20.0391C154.266 19.3216 155.292 18.9182 156.363 18.9189L236.406 18.9712C238.614 18.9727 240.406 20.6587 240.415 22.7436L240.58 60.6892C240.584 61.6997 240.161 62.67 239.404 63.3843C238.647 64.0985 237.619 64.4975 236.549 64.4926L216.6 64.3998L216.64 56.8241L232.54 56.898L232.409 26.5444L160.407 26.4974L160.682 56.3876L196.308 56.6362L196.249 64.2118L156.675 63.9357C154.485 63.9204 152.712 62.249 152.693 60.1808L152.349 22.7398C152.339 21.729 152.758 20.7567 153.512 20.0391Z" fill="#000091"/>
<path d="M92.264 64.4004C94.4795 64.4004 96.2754 66.0962 96.2754 68.1883C96.2754 70.1307 94.727 71.7319 92.7317 71.9508L92.264 71.9762H52.1492C49.9336 71.9762 48.1377 70.2803 48.1377 68.1883C48.1377 66.2459 49.6861 64.6447 51.6814 64.4258L52.1492 64.4004H92.264Z" fill="#E1000F"/>
<path d="M80.2295 83.3396C80.2295 81.2476 78.4336 79.5518 76.218 79.5518H52.1492L51.6814 79.5771C49.6861 79.7961 48.1377 81.3972 48.1377 83.3396C48.1377 85.4317 49.9336 87.1275 52.1492 87.1275H76.218L76.6858 87.1022C78.6811 86.8832 80.2295 85.2821 80.2295 83.3396Z" fill="#E1000F"/>
<path d="M144.412 71.9766C188.722 71.9766 224.642 105.894 224.642 147.734C224.642 159.593 221.751 171.069 216.273 181.459C215.285 183.331 212.877 184.094 210.894 183.161C208.91 182.228 208.103 179.955 209.091 178.082C214.019 168.736 216.619 158.414 216.619 147.734C216.619 110.079 184.291 79.5523 144.412 79.5523C104.534 79.5523 72.2056 110.079 72.2056 147.734C72.2056 184.972 103.819 215.237 143.086 215.905L144.412 215.916H213.133L201.246 199.078C200.106 197.462 200.453 195.319 201.985 194.091L202.359 193.825C204.071 192.748 206.341 193.076 207.64 194.522L207.922 194.876L223.968 217.603C225.661 220.001 224.008 223.173 221.079 223.47L220.63 223.492H144.412C100.103 223.492 64.1826 189.574 64.1826 147.734C64.1826 105.894 100.103 71.9766 144.412 71.9766Z" fill="#000091"/>
<path d="M176.506 41.7078C176.506 43.7965 178.305 45.4957 180.517 45.4957C182.729 45.4957 184.529 43.7965 184.529 41.7078C184.529 39.6192 182.729 37.9199 180.517 37.9199C178.305 37.9199 176.506 39.6192 176.506 41.7078Z" fill="#000091"/>
<path d="M196.562 45.4957C194.35 45.4957 192.551 43.7965 192.551 41.7078C192.551 39.6192 194.35 37.9199 196.562 37.9199C198.774 37.9199 200.574 39.6192 200.574 41.7078C200.574 43.7965 198.774 45.4957 196.562 45.4957Z" fill="#000091"/>
<path d="M208.596 41.7078C208.596 43.7965 210.395 45.4957 212.607 45.4957C214.819 45.4957 216.619 43.7965 216.619 41.7078C216.619 39.6192 214.819 37.9199 212.607 37.9199C210.395 37.9199 208.596 39.6192 208.596 41.7078Z" fill="#000091"/>
<path d="M20.0576 185.614C22.2731 185.614 24.0691 187.31 24.0691 189.402C24.0691 191.345 22.5206 192.946 20.5253 193.165L20.0576 193.19H4.01148C1.79594 193.19 0 191.494 0 189.402C0 187.46 1.54843 185.859 3.54374 185.64L4.01148 185.614H20.0576Z" fill="#000091"/>
<path d="M32.0928 189.402C32.0928 191.491 33.8923 193.19 36.1043 193.19C38.3162 193.19 40.1157 191.491 40.1157 189.402C40.1157 187.314 38.3162 185.614 36.1043 185.614C33.8923 185.614 32.0928 187.314 32.0928 189.402Z" fill="#000091"/>
<path d="M52.1492 193.19C49.9372 193.19 48.1377 191.491 48.1377 189.402C48.1377 187.314 49.9372 185.614 52.1492 185.614C54.3611 185.614 56.1607 187.314 56.1607 189.402C56.1607 191.491 54.3611 193.19 52.1492 193.19Z" fill="#000091"/>
<path d="M144.416 94.7051C146.631 94.7051 148.427 96.4009 148.427 98.493C148.427 100.585 146.631 102.281 144.416 102.281C117.83 102.281 96.2778 122.632 96.2778 147.736C96.2778 172.839 117.83 193.19 144.416 193.19C171.001 193.19 192.553 172.839 192.553 147.736C192.553 140.072 190.546 132.69 186.765 126.106C185.709 124.267 186.432 121.967 188.38 120.97C190.327 119.973 192.762 120.656 193.818 122.495C198.232 130.181 200.576 138.803 200.576 147.736C200.576 177.024 175.432 200.766 144.416 200.766C113.399 200.766 88.2549 177.024 88.2549 147.736C88.2549 118.448 113.399 94.7051 144.416 94.7051Z" fill="#E1000F"/>
<path fill-rule="evenodd" clip-rule="evenodd" d="M116.003 150.352L116.345 150.097L158.864 121.586C161.771 119.636 165.726 121.969 165.145 125.291L156.645 173.876C156.066 177.187 151.549 178.204 149.45 175.495L137.64 160.257L117.958 156.913C114.605 156.344 113.536 152.39 116.003 150.352ZM150.285 163.743L155.66 133.026L128.778 151.053L137.963 152.614L140.776 148.365C141.95 146.59 144.425 146.051 146.304 147.159C148.048 148.189 148.665 150.277 147.805 151.991L147.58 152.379L144.768 156.627L150.285 163.743Z" fill="#E1000F"/>
<path fill-rule="evenodd" clip-rule="evenodd" d="M216.646 71.7899L196.29 56.6221L191.32 62.5691L218.174 82.5791C219.38 83.4783 221.025 83.6472 222.409 83.0139C223.792 82.3806 224.67 81.0565 224.67 79.6048L224.666 57.1328L216.643 57.1342L216.646 71.7899Z" fill="#000091"/>
</svg>
