<svg width="200" height="200" viewBox="0 0 200 200" fill="none" xmlns="http://www.w3.org/2000/svg">
<path fill-rule="evenodd" clip-rule="evenodd" d="M147.5 190C146.121 190 145 188.879 145 187.5C145 186.121 146.121 185 147.5 185C148.879 185 150 186.121 150 187.5C150 188.879 148.879 190 147.5 190Z" fill="#CACAFB"/>
<path fill-rule="evenodd" clip-rule="evenodd" d="M167.5 20C166.121 20 165 18.8785 165 17.5C165 16.1214 166.121 15 167.5 15C168.879 15 170 16.1214 170 17.5C170 18.8785 168.879 20 167.5 20Z" fill="#CACAFB"/>
<path fill-rule="evenodd" clip-rule="evenodd" d="M20 35C18.6215 35 17.5 33.8785 17.5 32.5C17.5 31.1214 18.6215 30 20 30C21.3785 30 22.5 31.1214 22.5 32.5C22.5 33.8785 21.3785 35 20 35Z" fill="#CACAFB"/>
<path d="M77.5 80C77.5 78.6193 76.3807 77.5 75 77.5C73.6193 77.5 72.5 78.6193 72.5 80C72.5 81.3807 73.6193 82.5 75 82.5C76.3807 82.5 77.5 81.3807 77.5 80Z" fill="#E1000F"/>
<path d="M64.2099 83.1757C63.1792 82.2055 61.5123 82.2801 60.5794 83.3995L48.0794 98.3995L47.9099 98.6265C46.8298 100.247 47.9768 102.5 50 102.5H65L65.2916 102.483C66.5349 102.339 67.5 101.282 67.5 100L67.4832 99.7084C67.3388 98.4651 66.2821 97.5 65 97.5H55.3375L62.5 88.905L66.8989 94.1838L67.1147 94.4123C68.0223 95.2605 69.4408 95.3199 70.4199 94.5039C71.4806 93.62 71.624 92.0436 70.74 90.9829L64.4206 83.3995L64.2099 83.1757Z" fill="#E1000F"/>
<path d="M86.3868 157.92C85.9761 157.646 85.4936 157.5 85 157.5H35L34.7084 157.517C33.4651 157.661 32.5 158.718 32.5 160L32.5168 160.292C32.6612 161.535 33.7179 162.5 35 162.5H84.2625L84.5128 162.663C89.6143 165.872 94.7869 167.5 100 167.5L100.92 167.483C105.821 167.303 110.686 165.684 115.487 162.663L115.735 162.5H165L165.292 162.483C166.535 162.339 167.5 161.282 167.5 160C167.5 158.619 166.381 157.5 165 157.5H115L114.706 157.517C114.316 157.564 113.942 157.701 113.613 157.92C109.006 160.991 104.48 162.5 100 162.5C95.5197 162.5 90.9941 160.991 86.3868 157.92Z" fill="#E1000F"/>
<path d="M78.2322 93.2322C79.1334 92.331 80.5515 92.2617 81.5322 93.0243L81.7678 93.2322L86.7678 98.2322C87.7441 99.2085 87.7441 100.791 86.7678 101.768C85.8666 102.669 84.4485 102.738 83.4678 101.976L83.2322 101.768L80 98.5375L76.7678 101.768C75.8666 102.669 74.4485 102.738 73.4678 101.976L73.2322 101.768C72.331 100.867 72.2617 99.4485 73.0243 98.4678L73.2322 98.2322L78.2322 93.2322Z" fill="#E1000F"/>
<path d="M147.5 59.9997C147.5 58.619 146.381 57.4997 145 57.4997C142.377 57.4997 139.284 57.7437 135.719 58.2309L133.727 58.5208C132.708 58.6779 131.653 58.853 130.563 59.0461L128.336 59.4566L126.014 59.9152L123.598 60.4219L121.087 60.9768C120.66 61.0733 120.23 61.1718 119.796 61.2723L117.142 61.8993L114.394 62.5743C113.054 62.9092 112.24 64.2665 112.575 65.606C112.91 66.9455 114.267 67.7599 115.606 67.425C116.06 67.3116 116.509 67.2002 116.955 67.0908L119.581 66.4576L122.112 65.8715C122.526 65.7778 122.935 65.686 123.341 65.5961L125.729 65.0805L128.021 64.612L130.218 64.1904L132.318 63.8157C132.66 63.7572 132.999 63.7006 133.333 63.646L135.289 63.3417C135.925 63.2481 136.545 63.1623 137.149 63.0843L138.913 62.8738C141.2 62.6243 143.23 62.4997 145 62.4997C146.381 62.4997 147.5 61.3804 147.5 59.9997Z" fill="#000091"/>
<path d="M145 72.4997C146.381 72.4997 147.5 73.619 147.5 74.9997C147.5 76.3804 146.381 77.4997 145 77.4997C143.23 77.4997 141.2 77.6243 138.913 77.8738L137.149 78.0843C136.545 78.1623 135.925 78.2481 135.289 78.3417L133.333 78.646C132.999 78.7006 132.66 78.7572 132.318 78.8157L130.218 79.1904L128.021 79.612L125.729 80.0805L123.341 80.5961C122.935 80.686 122.526 80.7778 122.112 80.8715L119.581 81.4576L116.955 82.0908C116.509 82.2002 116.06 82.3116 115.606 82.425C114.267 82.7599 112.91 81.9455 112.575 80.606C112.24 79.2665 113.054 77.9092 114.394 77.5743L117.142 76.8993L119.796 76.2723C120.23 76.1718 120.66 76.0733 121.087 75.9768L123.598 75.4219L126.014 74.9152L128.336 74.4566L130.563 74.0461C131.653 73.853 132.708 73.6779 133.727 73.5208L135.719 73.2309C139.284 72.7437 142.377 72.4997 145 72.4997Z" fill="#000091"/>
<path d="M147.5 89.9997C147.5 88.619 146.381 87.4997 145 87.4997C142.377 87.4997 139.284 87.7437 135.719 88.2309L133.727 88.5208C132.708 88.6779 131.653 88.853 130.563 89.0461L128.336 89.4566L126.014 89.9152L123.598 90.4219L121.087 90.9768C120.66 91.0733 120.23 91.1718 119.796 91.2723L117.142 91.8993L114.394 92.5743C113.054 92.9092 112.24 94.2665 112.575 95.606C112.91 96.9455 114.267 97.7599 115.606 97.425C116.06 97.3116 116.509 97.2002 116.955 97.0908L119.581 96.4576L122.112 95.8715C122.526 95.7778 122.935 95.686 123.341 95.5961L125.729 95.0806L128.021 94.612L130.218 94.1904L132.318 93.8157C132.66 93.7572 132.999 93.7006 133.333 93.646L135.289 93.3417C135.925 93.2481 136.545 93.1623 137.149 93.0843L138.913 92.8738C141.2 92.6243 143.23 92.4997 145 92.4997C146.381 92.4997 147.5 91.3804 147.5 89.9997Z" fill="#000091"/>
<path fill-rule="evenodd" clip-rule="evenodd" d="M91.7678 151.767C94.6373 148.898 97.345 147.529 99.9174 147.5C99.9334 147.501 99.9495 147.501 99.9656 147.501C99.9772 147.501 99.9888 147.501 100 147.501H100.009C100.034 147.501 100.058 147.501 100.082 147.5C102.655 147.529 105.363 148.898 108.232 151.767C108.701 152.236 109.337 152.5 110 152.5H135L135.292 152.483C136.535 152.338 137.5 151.282 137.5 150L137.483 149.708C137.339 148.465 136.282 147.5 135 147.5H111.005L110.573 147.103C109.948 146.546 109.319 146.039 108.686 145.582L108.835 145.556L110.468 145.292L112.182 145.04L113.976 144.799L115.851 144.57L117.806 144.353L119.842 144.148L121.958 143.955L124.154 143.774L126.431 143.605L128.788 143.448L132.474 143.234L136.34 143.048L139.018 142.939L141.775 142.842L144.613 142.757L149.019 142.652L153.604 142.574L158.369 142.524L163.312 142.501C163.872 142.5 164.434 142.5 165 142.5C166.381 142.5 167.5 141.38 167.5 140V47.1241L172.503 53.3747L172.5 99.9997C172.5 101.282 173.465 102.338 174.709 102.483L175 102.5C176.282 102.5 177.339 101.535 177.483 100.291L177.5 99.9997V52.4997C177.5 52.0455 177.376 51.6022 177.145 51.2161L176.952 50.9379L166.996 38.4929C166.57 37.9284 165.909 37.5491 165.153 37.5027C138.278 35.8554 116.558 39.0538 100 47.1633C83.4421 39.0538 61.7221 35.8554 34.847 37.5027C34.0897 37.5491 33.4282 37.9294 33.0022 38.4949L23.0478 50.9379L22.8547 51.2161C22.6236 51.6022 22.5 52.0455 22.5 52.4997V64.9997L22.5168 65.2912C22.6612 66.5346 23.7179 67.4997 25 67.4997L25.2916 67.4828C26.5349 67.3384 27.5 66.2818 27.5 64.9997L27.4975 53.3747L32.5 47.1242V140C32.5 141.38 33.6193 142.5 35 142.5C35.5659 142.5 36.1284 142.5 36.6877 142.501L41.6314 142.524L46.3961 142.574L50.9814 142.652L55.3872 142.757L58.2246 142.842L60.982 142.939L63.6595 143.048L67.5257 143.234L71.2117 143.448L73.5687 143.605L75.8456 143.774L78.0421 143.955L80.1583 144.148L82.194 144.353L84.1493 144.57L86.0241 144.799L87.8183 145.04L89.5319 145.292L91.1648 145.556L91.3137 145.582C90.6805 146.039 90.0516 146.546 89.4271 147.103L88.9925 147.5H27.5V140L27.4832 139.708C27.3388 138.465 26.2821 137.5 25 137.5C23.6193 137.5 22.5 138.619 22.5 140V150L22.5168 150.291C22.6612 151.535 23.7179 152.5 25 152.5H90L90.3286 152.478C90.8704 152.406 91.3771 152.158 91.7678 151.767ZM97.5 141.735V51.5072L96.7234 51.1371C81.8845 44.1725 62.5376 41.2106 38.677 42.3043L37.5 42.3622V137.502L40.1143 137.514L45.1118 137.557L49.9208 137.63L53.0222 137.694L56.04 137.772L60.4101 137.913L63.2191 138.023L65.9447 138.147L68.5869 138.283L71.1459 138.433L73.6216 138.596L76.0141 138.772L78.3235 138.962L80.5499 139.164L82.6932 139.38L84.7536 139.609L86.7311 139.851L88.6258 140.107C88.9347 140.15 89.2401 140.195 89.5421 140.24L91.3126 140.515L93.0005 140.804L94.6057 141.106L96.1284 141.422L97.5 141.735ZM103.872 141.422L102.5 141.735V51.5072L103.277 51.1371C118.115 44.1725 137.462 41.2106 161.323 42.3043L162.5 42.3622V137.502L159.886 137.514L154.888 137.557L150.079 137.63L146.978 137.694L143.96 137.772L139.59 137.913L136.781 138.023L134.055 138.147L131.413 138.283L128.854 138.433L126.378 138.596L123.986 138.772L121.676 138.962L119.45 139.164L117.307 139.38L115.246 139.609L113.269 139.851L111.374 140.107C111.065 140.15 110.76 140.195 110.458 140.24L108.687 140.515L106.999 140.804L105.394 141.106L103.872 141.422Z" fill="#000091"/>
<path d="M177.483 114.708C177.339 113.465 176.282 112.5 175 112.5L174.708 112.516C173.465 112.661 172.5 113.718 172.5 115V147.5H155L154.708 147.516C153.465 147.661 152.5 148.718 152.5 150C152.5 151.38 153.619 152.5 155 152.5H175L175.292 152.483C176.535 152.338 177.5 151.282 177.5 150V115L177.483 114.708Z" fill="#000091"/>
<path d="M25 77.4997C26.2821 77.4997 27.3388 78.4648 27.4832 79.7081L27.5 79.9997V125C27.5 126.38 26.3807 127.5 25 127.5C23.7179 127.5 22.6612 126.535 22.5168 125.291L22.5 125V79.9997C22.5 78.619 23.6193 77.4997 25 77.4997Z" fill="#000091"/>
</svg>
