<svg width="212" height="212" viewBox="0 0 212 212" fill="none" xmlns="http://www.w3.org/2000/svg">
<path fill-rule="evenodd" clip-rule="evenodd" d="M198.75 164.3C197.289 164.3 196.1 163.111 196.1 161.65C196.1 160.189 197.289 159 198.75 159C200.211 159 201.4 160.189 201.4 161.65C201.4 163.111 200.211 164.3 198.75 164.3Z" fill="#CACAFB"/>
<path fill-rule="evenodd" clip-rule="evenodd" d="M145.75 10.6C144.289 10.6 143.1 9.4112 143.1 7.94999C143.1 6.48865 144.289 5.29999 145.75 5.29999C147.211 5.29999 148.4 6.48865 148.4 7.94999C148.4 9.4112 147.211 10.6 145.75 10.6Z" fill="#CACAFB"/>
<path fill-rule="evenodd" clip-rule="evenodd" d="M7.95 143.1C6.48879 143.1 5.3 141.911 5.3 140.45C5.3 138.989 6.48879 137.8 7.95 137.8C9.41121 137.8 10.6 138.989 10.6 140.45C10.6 141.911 9.41121 143.1 7.95 143.1Z" fill="#CACAFB"/>
<path d="M111.3 42.4C112.764 42.4 113.95 43.5865 113.95 45.05C113.95 46.409 112.927 47.5291 111.609 47.6822L111.3 47.7H68.9C67.4364 47.7 66.25 46.5136 66.25 45.05C66.25 43.691 67.273 42.5709 68.591 42.4179L68.9 42.4H111.3Z" fill="#E1000F"/>
<path d="M137.8 58.3C139.264 58.3 140.45 59.4865 140.45 60.95C140.45 62.309 139.427 63.4291 138.109 63.5822L137.8 63.6H68.9C67.4364 63.6 66.25 62.4136 66.25 60.95C66.25 59.591 67.273 58.4709 68.591 58.3179L68.9 58.3H137.8Z" fill="#E1000F"/>
<path d="M124.55 76.85C124.55 75.3865 123.364 74.2 121.9 74.2H68.9L68.591 74.2179C67.273 74.3709 66.25 75.491 66.25 76.85C66.25 78.3136 67.4364 79.5 68.9 79.5H121.9L122.209 79.4822C123.527 79.3291 124.55 78.209 124.55 76.85Z" fill="#E1000F"/>
<path d="M137.8 90.1C139.264 90.1 140.45 91.2864 140.45 92.75C140.45 94.109 139.427 95.2291 138.109 95.3822L137.8 95.4H68.9C67.4364 95.4 66.25 94.2136 66.25 92.75C66.25 91.391 67.273 90.2709 68.591 90.1178L68.9 90.1H137.8Z" fill="#000091"/>
<path d="M140.45 124.55C140.45 123.086 139.264 121.9 137.8 121.9H68.9L68.591 121.918C67.273 122.071 66.25 123.191 66.25 124.55C66.25 126.014 67.4364 127.2 68.9 127.2H137.8L138.109 127.182C139.427 127.029 140.45 125.909 140.45 124.55Z" fill="#000091"/>
<path d="M124.55 108.65C124.55 107.186 123.364 106 121.9 106H68.9L68.591 106.018C67.273 106.171 66.25 107.291 66.25 108.65C66.25 110.114 67.4364 111.3 68.9 111.3H121.9L122.209 111.282C123.527 111.129 124.55 110.009 124.55 108.65Z" fill="#000091"/>
<path d="M121.9 153.7C123.364 153.7 124.55 154.886 124.55 156.35C124.55 157.709 123.527 158.829 122.209 158.982L121.9 159H68.9C67.4364 159 66.25 157.814 66.25 156.35C66.25 154.991 67.273 153.871 68.591 153.718L68.9 153.7H121.9Z" fill="#000091"/>
<path d="M108.65 140.45C108.65 138.986 107.464 137.8 106 137.8H68.9L68.591 137.818C67.273 137.971 66.25 139.091 66.25 140.45C66.25 141.914 67.4364 143.1 68.9 143.1H106L106.309 143.082C107.627 142.929 108.65 141.809 108.65 140.45Z" fill="#000091"/>
<path fill-rule="evenodd" clip-rule="evenodd" d="M53 26.5H153.7C155.164 26.5 156.35 27.6864 156.35 29.15V172.25C156.35 173.714 155.164 174.9 153.7 174.9H53C51.5364 174.9 50.35 173.714 50.35 172.25V29.15C50.35 27.6864 51.5364 26.5 53 26.5ZM151.05 169.6V31.8H55.65V169.6H151.05Z" fill="#000091"/>
<path d="M164.3 47.7C165.659 47.7 166.779 48.723 166.932 50.041L166.95 50.35V182.85C166.95 184.209 165.927 185.329 164.609 185.482L164.3 185.5H74.2C72.7364 185.5 71.55 184.314 71.55 182.85C71.55 181.491 72.573 180.371 73.891 180.218L74.2 180.2H161.65V50.35C161.65 48.991 162.673 47.8709 163.991 47.7178L164.3 47.7Z" fill="#000091"/>
</svg>
