<svg width="2022" height="2022" viewBox="0 0 2022 2022" fill="none" xmlns="http://www.w3.org/2000/svg">
<path fill-rule="evenodd" clip-rule="evenodd" d="M66.1791 25.8272C84.5886 25.8132 99.5237 40.7256 99.5378 59.1351L100 666.641C100.014 685.05 85.1015 699.986 66.6921 700C48.2826 700.014 33.3474 685.101 33.3334 666.692L32.8711 59.1858C32.8571 40.7764 47.7696 25.8412 66.1791 25.8272Z" fill="#FF0000"/>
<path fill-rule="evenodd" clip-rule="evenodd" d="M450.284 105.053C456.112 116.188 455.181 129.655 447.876 139.882L367.098 252.987L444.993 365.031C452.059 375.195 452.911 388.437 447.205 399.423C441.5 410.408 430.177 417.327 417.798 417.391L96.1257 419.073L95.7773 352.407L354.084 351.057L298.952 271.755C290.912 260.19 291.009 244.818 299.196 233.355L355.341 154.741L84.6932 158.448L83.7803 91.7873L420.294 87.1789C432.861 87.0068 444.456 93.9177 450.284 105.053Z" fill="#FF0000"/>
<path fill-rule="evenodd" clip-rule="evenodd" d="M1954.57 1300C1972.98 1300.01 1987.89 1314.95 1987.88 1333.36L1987.41 1940.87C1987.4 1959.28 1972.46 1974.19 1954.05 1974.17C1935.65 1974.16 1920.73 1959.22 1920.75 1940.81L1921.21 1333.31C1921.23 1314.9 1936.16 1299.99 1954.57 1300Z" fill="#FF0000"/>
<path fill-rule="evenodd" clip-rule="evenodd" d="M1599.77 1361.35L1938.77 1358.96L1939.24 1425.63L1664.44 1427.56L1721.55 1507.54C1729.74 1519 1729.84 1534.37 1721.8 1545.93L1666.67 1625.22L1924.97 1626.57L1924.63 1693.24L1602.96 1691.56C1590.58 1691.5 1579.26 1684.58 1573.55 1673.59C1567.85 1662.61 1568.7 1649.36 1575.76 1639.2L1653.65 1527.16L1572.87 1414.05C1565.64 1403.93 1564.65 1390.61 1570.31 1379.53C1575.96 1368.45 1587.32 1361.44 1599.77 1361.35Z" fill="#FF0000"/>
<g opacity="0.99899">
<path fill-rule="evenodd" clip-rule="evenodd" d="M461.329 699.959L266.673 700C248.264 700.004 233.337 685.083 233.333 666.674C233.329 648.264 248.25 633.337 266.659 633.333L461.315 633.292C479.725 633.288 494.652 648.209 494.656 666.618C494.66 685.028 479.739 699.955 461.329 699.959Z" fill="#000091"/>
<path fill-rule="evenodd" clip-rule="evenodd" d="M699.999 666.646C700.011 685.055 685.096 699.988 666.687 700L600.02 700.041C581.611 700.052 566.677 685.138 566.666 666.728C566.655 648.319 581.569 633.386 599.979 633.374L666.645 633.333C685.055 633.322 699.988 648.236 699.999 666.646Z" fill="#000091"/>
<path fill-rule="evenodd" clip-rule="evenodd" d="M1572.01 1933.25C1572.02 1914.84 1586.94 1899.92 1605.35 1899.92L1800.01 1899.96C1818.42 1899.96 1833.34 1914.89 1833.33 1933.3C1833.33 1951.71 1818.4 1966.63 1799.99 1966.63L1605.34 1966.59C1586.93 1966.58 1572.01 1951.66 1572.01 1933.25Z" fill="#000091"/>
<path fill-rule="evenodd" clip-rule="evenodd" d="M1366.67 1933.27C1366.68 1914.86 1381.61 1899.95 1400.02 1899.96L1466.69 1900C1485.1 1900.01 1500.01 1914.94 1500 1933.35C1499.99 1951.76 1485.06 1966.68 1466.65 1966.67L1399.98 1966.63C1381.57 1966.62 1366.65 1951.68 1366.67 1933.27Z" fill="#000091"/>
<path fill-rule="evenodd" clip-rule="evenodd" d="M333.333 1233.33H935.229C953.638 1233.33 968.562 1248.26 968.562 1266.67C968.562 1285.08 953.638 1300 935.229 1300H333.439C333.422 1300 333.399 1300 333.369 1300C333.335 1300 333.291 1300 333.24 1300C332.966 1300.01 332.456 1300.02 331.726 1300.05C330.264 1300.11 327.926 1300.24 324.839 1300.52C318.653 1301.07 309.531 1302.2 298.465 1304.51C276.224 1309.14 246.832 1318.37 217.666 1336.6C161.431 1371.75 99.9997 1443.99 99.9997 1600C99.9997 1759.58 161.629 1831.54 217.413 1865.72C246.419 1883.49 275.662 1892.13 297.816 1896.29C308.837 1898.36 317.921 1899.28 324.08 1899.69C327.153 1899.9 329.478 1899.97 330.93 1900C331.655 1900.01 332.159 1900.01 332.428 1900.01C332.538 1900.01 332.608 1900.01 332.638 1900.01C332.776 1900 332.914 1900 333.052 1900C333.146 1900 333.239 1900 333.333 1900H1200C1218.41 1900 1233.33 1914.92 1233.33 1933.33C1233.33 1951.74 1218.41 1966.67 1200 1966.67L333.627 1966.67C333.626 1966.67 333.625 1966.67 333.623 1966.67C333.382 1966.67 333.076 1966.67 332.708 1966.67C331.967 1966.68 330.975 1966.67 329.747 1966.65C327.292 1966.61 323.888 1966.49 319.669 1966.21C311.245 1965.65 299.496 1964.44 285.517 1961.81C257.67 1956.59 220.247 1945.64 182.587 1922.56C105.037 1875.06 33.333 1780.35 33.333 1600C33.333 1422.67 105.235 1328.25 182.333 1280.07C219.834 1256.63 257.109 1245.03 284.868 1239.24C298.801 1236.34 310.513 1234.87 318.91 1234.12C323.115 1233.74 326.506 1233.55 328.951 1233.44C330.173 1233.39 331.161 1233.36 331.896 1233.35C332.264 1233.34 332.569 1233.34 332.809 1233.34C332.929 1233.33 333.033 1233.33 333.12 1233.33L333.239 1233.33L333.289 1233.33C333.312 1233.33 333.333 1233.33 333.333 1266.67V1233.33ZM332.587 1900.01C332.581 1900.01 332.575 1900.01 332.568 1900.01L332.587 1900.01Z" fill="#000091"/>
<path fill-rule="evenodd" clip-rule="evenodd" d="M766.666 666.666C766.666 648.257 781.59 633.333 799.999 633.333H1666.67V666.666C1666.67 633.333 1666.68 633.333 1666.7 633.333L1666.74 633.333L1666.85 633.333C1666.92 633.334 1667.01 633.334 1667.12 633.335C1667.34 633.337 1667.62 633.34 1667.97 633.345C1668.66 633.357 1669.6 633.377 1670.77 633.417C1673.12 633.495 1676.4 633.646 1680.5 633.939C1688.68 634.523 1700.14 635.675 1713.81 637.953C1741 642.484 1777.75 651.607 1814.91 670.185C1852.19 688.829 1890.5 717.318 1919.4 760.676C1948.45 804.243 1966.67 860.834 1966.67 933.333C1966.67 1110.66 1894.76 1205.08 1817.67 1253.27C1780.16 1276.7 1742.89 1288.31 1715.13 1294.09C1701.2 1296.99 1689.49 1298.47 1681.09 1299.22C1676.88 1299.59 1673.49 1299.79 1671.05 1299.89C1669.83 1299.94 1668.84 1299.97 1668.1 1299.98C1667.74 1299.99 1667.43 1299.99 1667.19 1300C1667.07 1300 1666.97 1300 1666.88 1300L1666.76 1300L1666.71 1300C1666.69 1300 1666.67 1300 1666.67 1266.67V1300H1201.48C1183.07 1300 1168.15 1285.08 1168.15 1266.67C1168.15 1248.26 1183.07 1233.33 1201.48 1233.33H1666.56C1666.6 1233.33 1666.66 1233.33 1666.76 1233.33C1667.03 1233.32 1667.54 1233.31 1668.27 1233.28C1669.74 1233.22 1672.07 1233.09 1675.16 1232.81C1681.35 1232.26 1690.47 1231.13 1701.53 1228.83C1723.78 1224.19 1753.17 1214.96 1782.33 1196.73C1838.57 1161.59 1900 1089.34 1900 933.333C1900 872.499 1884.89 829.09 1863.93 797.656C1842.84 766.014 1814.47 744.503 1785.09 729.814C1755.58 715.059 1725.67 707.516 1702.85 703.713C1691.52 701.825 1682.15 700.893 1675.75 700.436C1672.55 700.207 1670.11 700.098 1668.55 700.046C1667.77 700.02 1667.21 700.009 1666.89 700.003C1666.74 700.001 1666.64 700 1666.6 700H799.999C781.59 700 766.666 685.076 766.666 666.666Z" fill="#000091"/>
</g>
<path opacity="0.976744" fill-rule="evenodd" clip-rule="evenodd" d="M994.709 991.647C976.935 1006.96 964.503 1030.19 966.605 1064.64C967.12 1073.07 972.486 1088.19 984.711 1109.26C996.3 1129.23 1011.79 1150.78 1027.71 1171C1041.66 1188.71 1055.57 1204.93 1066.79 1217.56C1078.12 1204.93 1092.16 1188.69 1106.2 1170.95C1122.19 1150.75 1137.68 1129.26 1149.17 1109.36C1161.32 1088.31 1166.37 1073.43 1166.69 1065.33C1168.16 1028.91 1155.35 1005.59 1138.04 990.757C1119.74 975.08 1093.66 966.667 1066.67 966.667C1040.07 966.667 1013.46 975.494 994.709 991.647ZM1066.67 1266.67C1042.72 1289.86 1042.72 1289.86 1042.72 1289.85L1042.59 1289.72C1042.54 1289.67 1042.48 1289.6 1042.41 1289.53L1042.27 1289.38C1041.99 1289.1 1041.6 1288.69 1041.09 1288.16C1040.08 1287.1 1038.63 1285.56 1036.79 1283.6C1033.11 1279.67 1027.88 1274.03 1021.62 1267.06C1009.11 1253.15 992.327 1233.82 975.336 1212.24C958.435 1190.78 940.842 1166.49 927.05 1142.72C913.894 1120.05 901.578 1093.54 900.062 1068.7C896.695 1013.53 917.596 970.093 951.19 941.145C983.811 913.034 1026.6 900 1066.67 900C1106.34 900 1148.78 912.177 1181.41 940.128C1215.02 968.923 1235.55 1012.27 1233.31 1068.01C1232.29 1093.21 1220.01 1119.98 1206.91 1142.68C1193.14 1166.53 1175.47 1190.87 1158.46 1212.34C1141.36 1233.93 1124.43 1253.27 1111.81 1267.18C1105.48 1274.15 1100.21 1279.8 1096.49 1283.73C1094.63 1285.69 1093.15 1287.23 1092.13 1288.29C1091.62 1288.82 1091.22 1289.23 1090.94 1289.52C1090.81 1289.66 1090.7 1289.77 1090.62 1289.85L1090.5 1289.97L1090.49 1289.98C1090.48 1289.99 1090.48 1289.99 1066.67 1266.67ZM1066.67 1266.67L1090.48 1289.99C1084.19 1296.42 1075.57 1300.03 1066.57 1300C1057.58 1299.97 1048.98 1296.32 1042.72 1289.86L1066.67 1266.67Z" fill="#FF0000"/>
<path opacity="0.976744" d="M1010.62 1062.71C1010.62 1032.92 1034.76 1008.77 1064.55 1008.77C1094.34 1008.77 1118.48 1032.92 1118.48 1062.71C1118.48 1092.49 1094.34 1116.64 1064.55 1116.64C1034.76 1116.64 1010.62 1092.49 1010.62 1062.71Z" fill="#FF0000"/>
</svg>
