<svg width="200" height="200" viewBox="0 0 200 200" fill="none" xmlns="http://www.w3.org/2000/svg">
<path fill-rule="evenodd" clip-rule="evenodd" d="M197.058 37.838C195.437 37.838 194.117 36.6256 194.117 35.1353C194.117 33.6449 195.437 32.4326 197.058 32.4326C198.68 32.4326 200 33.6449 200 35.1353C200 36.6256 198.68 37.838 197.058 37.838Z" fill="#CACAFB"/>
<path fill-rule="evenodd" clip-rule="evenodd" d="M2.94118 37.838C1.31941 37.838 0 36.6256 0 35.1353C0 33.6449 1.31941 32.4326 2.94118 32.4326C4.56294 32.4326 5.88235 33.6449 5.88235 35.1353C5.88235 36.6256 4.56294 37.838 2.94118 37.838Z" fill="#CACAFB"/>
<path fill-rule="evenodd" clip-rule="evenodd" d="M14.7058 172.973C13.0841 172.973 11.7646 171.76 11.7646 170.27C11.7646 168.78 13.0841 167.567 14.7058 167.567C16.3276 167.567 17.647 168.78 17.647 170.27C17.647 171.76 16.3276 172.973 14.7058 172.973Z" fill="#CACAFB"/>
<path fill-rule="evenodd" clip-rule="evenodd" d="M173.529 183.783C171.907 183.783 170.588 182.571 170.588 181.081C170.588 179.59 171.907 178.378 173.529 178.378C175.151 178.378 176.47 179.59 176.47 181.081C176.47 182.571 175.151 183.783 173.529 183.783Z" fill="#CACAFB"/>
<path fill-rule="evenodd" clip-rule="evenodd" d="M38.2351 5.4054C36.6134 5.4054 35.2939 4.19297 35.2939 2.7027C35.2939 1.2123 36.6134 0 38.2351 0C39.8569 0 41.1763 1.2123 41.1763 2.7027C41.1763 4.19297 39.8569 5.4054 38.2351 5.4054Z" fill="#CACAFB"/>
<path fill-rule="evenodd" clip-rule="evenodd" d="M144.118 200C142.496 200 141.177 198.788 141.177 197.297C141.177 195.807 142.496 194.595 144.118 194.595C145.74 194.595 147.059 195.807 147.059 197.297C147.059 198.788 145.74 200 144.118 200Z" fill="#CACAFB"/>
<path fill-rule="evenodd" clip-rule="evenodd" d="M133.919 80.6289C131.567 52.5899 115.773 38.1074 87.5362 38.1074C59.2992 38.1074 43.5055 52.5899 41.1534 80.6289C40.9751 82.7506 42.8411 84.4794 44.9598 84.1559L51.0834 83.22V84.6582C48.7113 85.1122 46.9629 85.741 45.7371 86.6485C42.6291 88.9506 41.1415 92.6318 41.1415 97.3618C41.1415 105.764 45.9391 110.529 54.397 110.529C54.7578 110.529 55.1053 110.472 55.4303 110.366C58.9556 117.157 64.4207 122.705 71.0613 126.205C70.9996 126.456 70.9667 126.719 70.9667 126.989C70.9667 131.264 68.9157 135.063 65.738 137.469C65.6867 137.505 65.6367 137.542 65.5876 137.581C63.3856 139.199 60.6609 140.156 57.7112 140.156H51.0834L50.3381 140.17C39.7023 140.559 31.2002 149.247 31.2002 159.908C31.2002 161.726 32.6838 163.2 34.5141 163.2C36.3443 163.2 37.828 161.726 37.828 159.908C37.828 152.636 43.7628 146.74 51.0834 146.74H57.7112L58.4565 146.727C61.2282 146.625 63.8552 145.96 66.2242 144.843C69.7774 150.398 76.3298 152.094 85.0258 149.934C86.8014 149.493 87.8811 147.706 87.4371 145.942C86.9933 144.178 85.1941 143.106 83.4186 143.547C77.2224 145.085 73.6035 144.253 71.673 141.052C74.9159 137.874 77.065 133.599 77.509 128.832C80.6932 129.775 84.0568 130.281 87.5362 130.281C91.0154 130.281 94.3789 129.775 97.5633 128.832C98.4763 138.634 106.6 146.36 116.616 146.727L117.361 146.74H123.989C131.309 146.74 137.244 152.636 137.244 159.908C137.244 161.726 138.728 163.2 140.558 163.2C142.388 163.2 143.872 161.726 143.872 159.908C143.872 149.247 135.37 140.559 124.734 140.17L123.989 140.156H117.361C110.04 140.156 104.105 134.261 104.105 126.989C104.105 126.719 104.073 126.456 104.011 126.205C110.651 122.705 116.117 117.157 119.642 110.366C119.967 110.472 120.314 110.529 120.675 110.529C129.133 110.529 133.93 105.764 133.93 97.3618C133.93 92.6318 132.443 88.9506 129.335 86.6485C127.659 85.4079 125.007 84.6884 121.12 84.2238C120.979 84.2046 120.834 84.1948 120.687 84.1941L120.682 84.1937C120.362 84.1928 120.05 84.2376 119.754 84.3228C119.277 84.4598 118.844 84.7 118.481 85.0184C117.84 85.5813 117.42 86.3869 117.367 87.29C117.362 87.3728 117.36 87.455 117.361 87.5367V92.4239L117.349 93.3314C116.89 110.216 103.682 123.697 87.5362 123.697C71.1012 123.697 57.7112 109.73 57.7112 92.4239V82.2071L88.0401 77.572L88.4307 77.4881C89.3249 77.2389 90.0796 76.6264 90.5001 75.7905L93.8138 69.2067L93.9669 68.8534C94.5327 67.3039 93.8519 65.5451 92.332 64.7903L91.9763 64.6382C90.4164 64.0762 88.6459 64.7524 87.8861 66.2625L85.3357 71.3226L48.2336 76.9913L48.2939 76.5674C51.5418 55.0641 64.3499 44.6912 87.5362 44.6912L88.7262 44.7004C110.767 45.0459 123.147 55.0734 126.602 75.4652L126.772 76.5536L104.909 71.1249L104.529 71.053C102.884 70.8404 101.303 71.882 100.891 73.5201C100.447 75.2838 101.526 77.071 103.302 77.5119L129.813 84.0957L130.2 84.1688C132.254 84.4333 134.096 82.7446 133.919 80.6289ZM51.0834 91.4036C50.3805 91.5871 49.9114 91.7695 49.6989 91.9267C48.4569 92.8469 47.7692 94.548 47.7692 97.3618C47.7692 101.548 49.182 103.46 52.7777 103.863C51.7671 100.548 51.1838 97.0365 51.0953 93.3991L51.0834 92.4239V91.4036ZM127.303 97.3618C127.303 101.548 125.89 103.46 122.294 103.863C123.395 100.252 123.989 96.409 123.989 92.4239V91.4036C124.692 91.5871 125.161 91.7695 125.373 91.9267C126.615 92.8469 127.303 94.548 127.303 97.3618Z" fill="#000091"/>
<path fill-rule="evenodd" clip-rule="evenodd" d="M187.588 25.4758C188.005 25.9088 188.236 26.4956 188.231 27.1055L188.041 49.7003C188.03 50.9484 187.05 51.9571 185.839 51.9663L163.953 52.1327L163.92 47.5611L183.623 47.4112L183.775 29.3732L143.956 29.4015L143.883 47.7193L152.676 47.6746L152.698 52.2463L141.666 52.3023C141.074 52.3053 140.506 52.0646 140.087 51.6335C139.668 51.2025 139.434 50.6169 139.437 50.0071L139.528 27.1079C139.533 25.8497 140.524 24.8322 141.745 24.8313L186.011 24.7998C186.603 24.7994 187.171 25.0428 187.588 25.4758Z" fill="#E0000F"/>
<path d="M174.923 38.551C174.923 39.7739 173.928 40.7689 172.705 40.7689C171.482 40.7689 170.487 39.7739 170.487 38.551C170.487 37.328 171.482 36.333 172.705 36.333C173.928 36.333 174.923 37.328 174.923 38.551Z" fill="#E0000F"/>
<path d="M163.833 40.7689C165.056 40.7689 166.051 39.7739 166.051 38.551C166.051 37.328 165.056 36.333 163.833 36.333C162.61 36.333 161.615 37.328 161.615 38.551C161.615 39.7739 162.61 40.7689 163.833 40.7689Z" fill="#E0000F"/>
<path d="M157.18 38.551C157.18 39.7739 156.185 40.7689 154.962 40.7689C153.739 40.7689 152.744 39.7739 152.744 38.551C152.744 37.328 153.739 36.333 154.962 36.333C156.185 36.333 157.18 37.328 157.18 38.551Z" fill="#E0000F"/>
<path fill-rule="evenodd" clip-rule="evenodd" d="M166.051 51.2167L151.764 62.4895C151.122 62.9961 150.247 63.0912 149.511 62.7344C148.775 62.3777 148.307 61.6317 148.308 60.8139L148.31 48.1537L152.578 48.1545L152.577 56.4112L163.407 47.8662L166.051 51.2167Z" fill="#E0000F"/>
</svg>
