<?xml version="1.0" encoding="UTF-8" standalone="no"?>
<!DOCTYPE svg PUBLIC "-//W3C//DTD SVG 1.1//EN" "http://www.w3.org/Graphics/SVG/1.1/DTD/svg11.dtd">
<!-- Created with Vectornator (http://vectornator.io/) -->
<svg stroke-miterlimit="10" style="fill-rule:nonzero;clip-rule:evenodd;stroke-linecap:round;stroke-linejoin:round;" version="1.1" viewBox="0 0 1640 826.539" xml:space="preserve" xmlns="http://www.w3.org/2000/svg" xmlns:vectornator="http://vectornator.io" xmlns:xlink="http://www.w3.org/1999/xlink">
<defs/>
<clipPath id="ArtboardFrame">
<rect height="826.539" width="1640" x="0" y="0"/>
</clipPath>
<g clip-path="url(#ArtboardFrame)" id="Calque-1" vectornator:layerName="Calque 1">
<path d="M0.0128252-1.43361L1640.75-1.43361L1640.75 826.286L0.0128252 826.286L0.0128252-1.43361Z" fill="#273961" fill-rule="nonzero" opacity="1" stroke="none"/>
<path d="M740.402 408.469L780.402 408.469" fill="none" opacity="1" stroke="#ffffff" stroke-linecap="round" stroke-linejoin="round" stroke-width="28.601"/>
<path d="M853.025 407.627L893.025 407.627" fill="none" opacity="1" stroke="#ffffff" stroke-linecap="round" stroke-linejoin="round" stroke-width="28.601"/>
<path d="M953.025 407.627L993.025 407.627" fill="none" opacity="1" stroke="#ffffff" stroke-linecap="round" stroke-linejoin="round" stroke-width="28.601"/>
<path d="M1053.02 407.627L1093.02 407.627" fill="none" opacity="1" stroke="#ffffff" stroke-linecap="round" stroke-linejoin="round" stroke-width="28.601"/>
<path d="M1153.02 407.627L1193.02 407.627" fill="none" opacity="1" stroke="#ffffff" stroke-linecap="round" stroke-linejoin="round" stroke-width="28.601"/>
<path d="M1253.02 407.627L1293.02 407.627" fill="none" opacity="1" stroke="#ffffff" stroke-linecap="round" stroke-linejoin="round" stroke-width="28.601"/>
<path d="M1353.02 407.627L1393.02 407.627" fill="none" opacity="1" stroke="#ffffff" stroke-linecap="round" stroke-linejoin="round" stroke-width="28.601"/>
<path d="M1453.02 407.627L1493.02 407.627" fill="none" opacity="1" stroke="#ffffff" stroke-linecap="round" stroke-linejoin="round" stroke-width="28.601"/>
<path d="M1553.02 407.627L1593.02 407.627" fill="none" opacity="1" stroke="#ffffff" stroke-linecap="round" stroke-linejoin="round" stroke-width="28.601"/>
<path d="M1124.88 698.128L1125.58 658.134" fill="none" opacity="1" stroke="#ffffff" stroke-linecap="round" stroke-linejoin="round" stroke-width="28.601"/>
<path d="M1126.63 598.144L1127.33 558.15" fill="none" opacity="1" stroke="#ffffff" stroke-linecap="round" stroke-linejoin="round" stroke-width="28.601"/>
<path d="M1128.37 498.159L1129.07 458.165" fill="none" opacity="1" stroke="#ffffff" stroke-linecap="round" stroke-linejoin="round" stroke-width="28.601"/>
<path d="M817.798 693.729L818.496 653.735" fill="none" opacity="1" stroke="#ffffff" stroke-linecap="round" stroke-linejoin="round" stroke-width="28.601"/>
<path d="M820.667 593.912L821.365 553.918" fill="none" opacity="1" stroke="#ffffff" stroke-linecap="round" stroke-linejoin="round" stroke-width="28.601"/>
<path d="M822.412 493.927L823.11 453.933" fill="none" opacity="1" stroke="#ffffff" stroke-linecap="round" stroke-linejoin="round" stroke-width="28.601"/>
<path d="M1126.28 800.301L1126.98 760.307" fill="none" opacity="1" stroke="#ffffff" stroke-linecap="round" stroke-linejoin="round" stroke-width="28.601"/>
<path d="M1169.83 728.146L1209.83 728.146" fill="none" opacity="1" stroke="#ffffff" stroke-linecap="round" stroke-linejoin="round" stroke-width="28.601"/>
<path d="M1269.83 728.146L1309.83 728.146" fill="none" opacity="1" stroke="#ffffff" stroke-linecap="round" stroke-linejoin="round" stroke-width="28.601"/>
<path d="M1369.83 728.146L1409.83 728.146" fill="none" opacity="1" stroke="#ffffff" stroke-linecap="round" stroke-linejoin="round" stroke-width="28.601"/>
<path d="M1469.83 728.146L1509.83 728.146" fill="none" opacity="1" stroke="#ffffff" stroke-linecap="round" stroke-linejoin="round" stroke-width="28.601"/>
<path d="M1544.86 696.119L1566.28 662.338" fill="none" opacity="1" stroke="#ffffff" stroke-linecap="round" stroke-linejoin="round" stroke-width="28.601"/>
<path d="M389.17 78.3178L389.868 38.3239" fill="none" opacity="1" stroke="#ffffff" stroke-linecap="round" stroke-linejoin="round" stroke-width="28.601"/>
<path d="M1387.85 214.575L1357.98 187.967" fill="none" opacity="1" stroke="#ffffff" stroke-linecap="round" stroke-linejoin="round" stroke-width="28.601"/>
<path d="M1313.18 148.054L1283.32 121.446" fill="none" opacity="1" stroke="#ffffff" stroke-linecap="round" stroke-linejoin="round" stroke-width="28.601"/>
<path d="M1540.89 346.662L1511.02 320.054" fill="none" opacity="1" stroke="#ffffff" stroke-linecap="round" stroke-linejoin="round" stroke-width="28.601"/>
<path d="M1466.22 280.141L1436.36 253.533" fill="none" opacity="1" stroke="#ffffff" stroke-linecap="round" stroke-linejoin="round" stroke-width="28.601"/>
<path d="M885.13 96.5651L925.13 96.5651" fill="none" opacity="1" stroke="#ffffff" stroke-linecap="round" stroke-linejoin="round" stroke-width="28.601"/>
<path d="M985.13 96.5651L1025.13 96.5651" fill="none" opacity="1" stroke="#ffffff" stroke-linecap="round" stroke-linejoin="round" stroke-width="28.601"/>
<path d="M1085.13 96.5651L1125.13 96.5651" fill="none" opacity="1" stroke="#ffffff" stroke-linecap="round" stroke-linejoin="round" stroke-width="28.601"/>
<path d="M1185.13 96.5651L1225.13 96.5651" fill="none" opacity="1" stroke="#ffffff" stroke-linecap="round" stroke-linejoin="round" stroke-width="28.601"/>
<path d="M40 407.627L80 407.627" fill="none" opacity="1" stroke="#ffffff" stroke-linecap="round" stroke-linejoin="round" stroke-width="28.601"/>
<path d="M822.469 262.798L823.167 222.804" fill="none" opacity="1" stroke="#ffffff" stroke-linecap="round" stroke-linejoin="round" stroke-width="28.601"/>
<path d="M824.214 162.813L824.913 122.819" fill="none" opacity="1" stroke="#ffffff" stroke-linecap="round" stroke-linejoin="round" stroke-width="28.601"/>
<path d="M825.96 62.8285L826.658 22.8346" fill="none" opacity="1" stroke="#ffffff" stroke-linecap="round" stroke-linejoin="round" stroke-width="28.601"/>
<path d="M822.469 262.798L823.167 222.804" fill="none" opacity="1" stroke="#ffffff" stroke-linecap="round" stroke-linejoin="round" stroke-width="28.601"/>
<path d="M824.214 162.813L824.913 122.819" fill="none" opacity="1" stroke="#ffffff" stroke-linecap="round" stroke-linejoin="round" stroke-width="28.601"/>
<path d="M825.96 62.8285L826.658 22.8346" fill="none" opacity="1" stroke="#ffffff" stroke-linecap="round" stroke-linejoin="round" stroke-width="28.601"/>
<path d="M384.982 818.11L385.68 778.116" fill="none" opacity="1" stroke="#ffffff" stroke-linecap="round" stroke-linejoin="round" stroke-width="28.601"/>
<path d="M386.727 718.125L387.425 678.131" fill="none" opacity="1" stroke="#ffffff" stroke-linecap="round" stroke-linejoin="round" stroke-width="28.601"/>
<path d="M388.472 618.141L389.17 578.147" fill="none" opacity="1" stroke="#ffffff" stroke-linecap="round" stroke-linejoin="round" stroke-width="28.601"/>
<path d="M823.865 364.971L824.564 324.977" fill="none" opacity="1" stroke="#ffffff" stroke-linecap="round" stroke-linejoin="round" stroke-width="28.601"/>
<path d="M1592.95 624.356L1614.37 590.575" fill="none" opacity="1" stroke="#ffffff" stroke-linecap="round" stroke-linejoin="round" stroke-width="28.601"/>
<path d="M817.317 790.161L818.015 750.167" fill="none" opacity="1" stroke="#ffffff" stroke-linecap="round" stroke-linejoin="round" stroke-width="28.601"/>
<path d="M599.994 801.242L628.762 773.449" fill="none" opacity="1" stroke="#ffffff" stroke-linecap="round" stroke-linejoin="round" stroke-width="28.601"/>
<path d="M672.589 732.673L701.357 704.881" fill="none" opacity="1" stroke="#ffffff" stroke-linecap="round" stroke-linejoin="round" stroke-width="28.601"/>
<path d="M744.508 663.192L773.276 635.399" fill="none" opacity="1" stroke="#ffffff" stroke-linecap="round" stroke-linejoin="round" stroke-width="28.601"/>
<path d="M191.619 529.295L141.562 530.068L143.301 131.807L701.357 133.208L694.768 529.295L412.656 529.295" fill="none" opacity="1" stroke="#ff0000" stroke-linecap="round" stroke-linejoin="round" stroke-width="20.6"/>
<path d="M252.216 330.937C252.216 314.093 265.872 300.437 282.716 300.437C299.561 300.437 313.216 314.093 313.216 330.937C313.216 347.782 299.561 361.437 282.716 361.437C265.872 361.437 252.216 347.782 252.216 330.937Z" fill="#ff0000" fill-rule="nonzero" opacity="1" stroke="none"/>
<path d="M392.42 330.937C392.42 314.093 406.076 300.437 422.92 300.437C439.765 300.437 453.42 314.093 453.42 330.937C453.42 347.782 439.765 361.437 422.92 361.437C406.076 361.437 392.42 347.782 392.42 330.937Z" fill="#ff0000" fill-rule="nonzero" opacity="1" stroke="none"/>
<path d="M526.483 330.937C526.483 314.093 540.138 300.437 556.983 300.437C573.827 300.437 587.483 314.093 587.483 330.937C587.483 347.782 573.827 361.437 556.983 361.437C540.138 361.437 526.483 347.782 526.483 330.937Z" fill="#ff0000" fill-rule="nonzero" opacity="1" stroke="none"/>
<path d="M365.749 529.295L330.44 529.295L275.898 649.295L221.357 529.295" fill="none" opacity="1" stroke="#ff0000" stroke-linecap="round" stroke-linejoin="round" stroke-width="20.6"/>
</g>
</svg>
