<svg width="123" height="145" viewBox="0 0 123 145" fill="none" xmlns="http://www.w3.org/2000/svg">
<path fill-rule="evenodd" clip-rule="evenodd" d="M112.134 49.2885C109.567 16.7872 92.3252 0 61.5001 0C30.6748 0 13.4333 16.7872 10.8656 49.2885C10.671 51.7479 12.708 53.7518 15.0209 53.3768L21.7058 52.292V53.959C19.1163 54.4853 17.2077 55.2141 15.8694 56.2661C12.4765 58.9346 10.8526 63.2016 10.8526 68.6843C10.8526 78.4233 16.0899 83.9475 25.3231 83.9475C25.7171 83.9475 26.0964 83.8809 26.4512 83.7581C30.2997 91.6297 36.2657 98.0611 43.515 102.118C43.4477 102.409 43.4117 102.714 43.4117 103.026C43.4117 107.982 41.1728 112.386 37.7038 115.174C37.6478 115.216 37.5932 115.259 37.5396 115.304C35.1358 117.18 32.1613 118.29 28.9411 118.29H21.7058L20.8922 118.305C9.28143 118.757 0 128.827 0 141.184C0 143.292 1.61962 145 3.61765 145C5.61568 145 7.2353 143.292 7.2353 141.184C7.2353 132.755 13.7142 125.921 21.7058 125.921H28.9411L29.7547 125.905C32.7806 125.788 35.6484 125.017 38.2345 123.722C42.1134 130.161 49.2665 132.127 58.7596 129.623C60.698 129.112 61.8767 127.04 61.3919 124.996C60.9075 122.951 58.9433 121.708 57.0051 122.22C50.2408 124.003 46.2903 123.037 44.1828 119.327C47.723 115.644 50.0691 110.688 50.5538 105.163C54.0299 106.256 57.7017 106.842 61.5001 106.842C65.2982 106.842 68.9701 106.256 72.4464 105.163C73.443 116.525 82.3112 125.48 93.2452 125.905L94.0588 125.921H101.294C109.286 125.921 115.765 132.755 115.765 141.184C115.765 143.292 117.384 145 119.382 145C121.38 145 123 143.292 123 141.184C123 128.827 113.719 118.757 102.108 118.305L101.294 118.29H94.0588C86.0672 118.29 79.5882 111.456 79.5882 103.026C79.5882 102.714 79.5525 102.409 79.4852 102.118C86.7342 98.0611 92.7003 91.6297 96.5488 83.7586C96.9039 83.8809 97.2829 83.9475 97.6766 83.9475C106.91 83.9475 112.147 78.4233 112.147 68.6843C112.147 63.2016 110.523 58.9346 107.13 56.2661C105.301 54.828 102.406 53.9941 98.1628 53.4555C98.0081 53.4333 97.8501 53.4219 97.6898 53.4211L97.6842 53.4206C97.335 53.4196 96.9949 53.4715 96.6714 53.5703C96.1504 53.7291 95.6777 54.0075 95.282 54.3766C94.582 55.0291 94.1232 55.9629 94.0649 57.0097C94.0595 57.1057 94.0578 57.2009 94.0588 57.2957V62.9606L94.0454 64.0126C93.5447 83.5846 79.1262 99.2107 61.5001 99.2107C43.5585 99.2107 28.9411 83.0212 28.9411 62.9606V51.1179L62.0502 45.7452L62.4767 45.6479C63.4527 45.3591 64.2766 44.649 64.7357 43.6802L68.3532 36.0486L68.5203 35.639C69.1379 33.8429 68.3948 31.8042 66.7355 30.9293L66.3472 30.753C64.6444 30.1015 62.7116 30.8854 61.8821 32.6358L59.098 38.5012L18.5948 45.0721L18.6607 44.5806C22.2062 19.6552 36.1884 7.6316 61.5001 7.6316L62.7992 7.64218C86.8607 8.04274 100.376 19.666 104.147 43.3031L104.333 44.5646L80.4654 38.272L80.0507 38.1887C78.2544 37.9422 76.5283 39.1496 76.0788 41.0484C75.5941 43.0927 76.7726 45.1644 78.711 45.6755L107.652 53.3071L108.075 53.3917C110.317 53.6983 112.328 51.7409 112.134 49.2885ZM21.7058 61.778C20.9385 61.9906 20.4263 62.202 20.1944 62.3842C18.8385 63.451 18.0878 65.4228 18.0878 68.6843C18.0878 73.537 19.6301 75.7533 23.5555 76.2199C22.4522 72.3774 21.8155 68.3073 21.7188 64.091L21.7058 62.9606V61.778ZM104.912 68.6843C104.912 73.537 103.37 75.7533 99.4445 76.2199C100.646 72.0349 101.294 67.58 101.294 62.9606V61.778C102.061 61.9906 102.573 62.202 102.805 62.3842C104.161 63.451 104.912 65.4228 104.912 68.6843Z" fill="#000091"/>
</svg>
